<?xml version="1.0" encoding="UTF-8"?>
<svg id="Layer_1" data-name="Layer 1" xmlns="http://www.w3.org/2000/svg" xmlns:xlink="http://www.w3.org/1999/xlink" viewBox="0 0 24 24">
  <defs>
    <style>
      .cls-1 {
        fill: none;
      }

      .cls-2 {
        fill: #0a0a0a;
      }

      .cls-3 {
        clip-path: url(#clippath);
      }
    </style>
    <clipPath id="clippath">
      <rect class="cls-1" x="3" y="5.61" width="18" height="16.01"/>
    </clipPath>
  </defs>
  <g id="Group_1413" data-name="Group 1413">
    <g class="cls-3">
      <g id="Group_387" data-name="Group 387">
        <path id="Path_195" data-name="Path 195" class="cls-2" d="M21,13.59c0,.55-.45.99-1,1h-1l.02,5.01c0,.08,0,.17-.02.25v.51c0,.69-.56,1.25-1.25,1.25h-1.75s-.75,0-.75,0c-.69,0-1.25-.56-1.25-1.25v-2.75c0-.55-.45-1-1-1h-2c-.55,0-1,.45-1,1v2.75c0,.69-.56,1.25-1.25,1.25,0,0,0,0,0,0h-1.75s-.09,0-.14,0-.07,0-.11,0h-.5c-.69,0-1.25-.56-1.25-1.25v-3.5s0-.06,0-.09v-2.18h-1c-.55,0-.99-.43-1-.98,0,0,0-.02,0-.02,0-.28.11-.55.31-.75l8.01-6.99c.18-.18.43-.27.69-.25.24,0,.47.07.66.22l7.98,7.02c.24.17.37.46.34.75"/>
      </g>
    </g>
  </g>
  <g>
    <rect x="18.35" y="1.21" width="2" height="6.44"/>
    <rect x="16.13" y="3.43" width="6.44" height="2"/>
  </g>
</svg>