<?xml version="1.0" encoding="UTF-8"?>
<svg id="Layer_1" data-name="Layer 1" xmlns="http://www.w3.org/2000/svg" xmlns:xlink="http://www.w3.org/1999/xlink" viewBox="0 0 24 24">
  <defs>
    <style>
      .cls-1 {
        fill: none;
      }

      .cls-2 {
        clip-path: url(#clippath);
      }
    </style>
    <clipPath id="clippath">
      <rect class="cls-1" x="3" y="4.12" width="18" height="15.75"/>
    </clipPath>
  </defs>
  <g id="Group_390" data-name="Group 390">
    <g class="cls-2">
      <g id="Group_389" data-name="Group 389">
        <path id="Path_196" data-name="Path 196" d="M7.71,17.28l-4.31-4.32c-.53-.53-.53-1.39,0-1.92l4.32-4.32c.47-.47,1.22-.47,1.69,0,.22.22.35.53.35.84v2.18h4.5c.62,0,1.12.5,1.12,1.12,0,0,0,0,0,0v2.25c0,.62-.5,1.12-1.12,1.12,0,0,0,0,0,0h-4.5v2.18c0,.66-.54,1.19-1.2,1.19-.32,0-.62-.13-.84-.35M15.38,17.62h2.25c.62,0,1.12-.5,1.12-1.12,0,0,0,0,0,0V7.5c0-.62-.5-1.12-1.12-1.12,0,0,0,0,0,0h-2.25c-.62,0-1.12-.5-1.12-1.12s.5-1.12,1.12-1.12h2.25c1.86,0,3.37,1.51,3.38,3.38v9c0,1.86-1.51,3.37-3.38,3.38h-2.25c-.62,0-1.12-.5-1.12-1.12s.5-1.12,1.12-1.12"/>
      </g>
    </g>
  </g>
</svg>