<?xml version="1.0" encoding="UTF-8"?>
<svg id="Layer_1" data-name="Layer 1" xmlns="http://www.w3.org/2000/svg" viewBox="0 0 24 24">
  <path d="M20.08,6.48s0,0,0,0c0,0,0,0,0,0,0-1.62-1.31-2.94-2.94-2.94s-2.79,1.19-2.93,2.67h-4.75l-.99-2.5c-.04-.1-.14-.17-.25-.17h-2.55c-.15,0-.27.12-.27.27s.12.27.27.27h2.36l.84,2.13h-3.63c-.1,0-.2.06-.24.15-.05.09-.04.2.03.29l4.17,5.54c.46.62.8,1.31.99,2.06,0,0,0,0,0,0,0,0,0,0,0,0,.12.47.18.96.18,1.45v2.33c0,1.03-.6,1.99-1.53,2.44l-1.54.75c-.11.06-.17.18-.15.31.03.12.14.21.27.21h7.54c.13,0,.24-.09.27-.21.03-.12-.03-.25-.15-.31l-1.54-.75c-.93-.45-1.53-1.41-1.53-2.44v-2.32c0-.49.06-.98.18-1.45,0,0,0,0,0,0,.19-.75.53-1.44.99-2.06l2.41-3.2c.46.28.98.44,1.53.44,0,0,0,0,.01,0,0,0,0,0,.01,0,1.61,0,2.93-1.31,2.93-2.94ZM19.52,6.21h-1.72l1.22-1.22c.28.35.45.77.5,1.22ZM17.41,5.82v-1.72c.45.05.87.22,1.22.5l-1.22,1.22ZM16.87,5.82l-1.22-1.22c.35-.28.77-.45,1.22-.5v1.72ZM17.41,7.14l1.22,1.22c-.35.28-.77.45-1.22.5v-1.72ZM17.8,6.75h1.72c-.05.45-.22.87-.5,1.22l-1.22-1.22ZM15.26,4.99l1.22,1.22h-1.72c.05-.45.22-.87.5-1.22ZM16.59,6.75l-.88,1.17c-2.24.49-3.61.25-4.82.04-.26-.05-.52-.09-.79-.13l-.43-1.08h6.91ZM9.09,6.75l.4,1.01c-.78-.06-1.62,0-2.69.33l-1.01-1.34h3.3ZM13.3,20.95l.48.23h-5.17l.48-.23c1.12-.54,1.84-1.69,1.84-2.93v-2.33c0-.42-.04-.84-.12-1.25h.79c-.08.41-.12.83-.12,1.25v2.32c0,1.24.72,2.39,1.84,2.93ZM11.72,13.9h-1.06c-.51-1.76-1.4-2.4-3.51-5.35,2.98-.86,4.11.71,8.07.02-2.08,2.92-2.98,3.57-3.5,5.33ZM16.87,7.29v1.56c-.33-.04-.65-.14-.94-.31l.94-1.25Z"/>
</svg>