<?xml version="1.0" encoding="UTF-8"?>
<svg id="Layer_1" data-name="Layer 1" xmlns="http://www.w3.org/2000/svg" viewBox="0 0 24 24">
  <defs>
    <style>
      .cls-1 {
        fill: #212121;
      }
    </style>
  </defs>
  <g id="_319387880" data-name=" 319387880">
    <path id="_319387760" data-name=" 319387760" class="cls-1" d="M11.18,20.75h1.66c.1,0,.22-.04.32-.1.1-.06.18-.13.22-.21h0c.28-.58.73-1.59,1.01-2.78.19-.79.3-1.65.26-2.5-.08-1.34-.61-2.22-1.11-3.03-.6-.98-1.15-1.88-.96-3.36.06-.47.14-.93.22-1.38.32-1.83.63-3.66-.4-4.05-.16-.06-.28-.09-.39-.09-.11,0-.23.03-.39.09-1.04.39-.72,2.23-.4,4.06.08.45.16.91.22,1.38.2,1.49-.35,2.38-.96,3.36-.34.56-.71,1.15-.92,1.89.44.37.8.83,1.06,1.34.29.58.45,1.23.45,1.91,0,.49-.08.95-.23,1.39-.13.37-.31.73-.53,1.05.04.09.08.18.11.26.07.16.14.31.22.46.04.08.12.15.22.21.11.06.22.1.32.1h0ZM12.85,21.55h-1.66c-.24,0-.51-.08-.73-.22-.22-.13-.41-.32-.52-.54-.08-.16-.16-.33-.23-.48-.08-.17-.15-.34-.21-.49l-.09-.21.14-.18c.23-.3.42-.64.55-1.01.12-.35.19-.73.19-1.13,0-.56-.13-1.09-.37-1.56-.24-.49-.6-.91-1.03-1.23l-.21-.16.06-.25c.23-.99.67-1.7,1.08-2.37.53-.85,1.01-1.64.85-2.84-.06-.41-.14-.88-.22-1.35-.37-2.15-.75-4.31.91-4.94.24-.09.45-.14.66-.14.21,0,.42.05.66.14,1.65.62,1.28,2.78.91,4.93-.08.47-.16.94-.22,1.35-.16,1.21.32,1.99.85,2.84.55.89,1.14,1.85,1.23,3.4.05.94-.07,1.88-.27,2.73-.3,1.25-.77,2.33-1.07,2.94h0c-.11.22-.3.41-.52.54-.22.13-.49.22-.73.22h0Z"/>
    <path id="_319387352" data-name=" 319387352" class="cls-1" d="M18.01,17.97h1.31c.07,0,.14-.02.22-.07.06-.04.11-.08.14-.12.22-.43.57-1.19.79-2.07.14-.58.23-1.22.2-1.85-.06-.99-.47-1.63-.86-2.23-.48-.76-.93-1.45-.77-2.61.05-.35.11-.68.17-1.02.24-1.39.5-2.84-.25-3.11-.11-.04-.2-.06-.28-.06-.08,0-.16.02-.28.06-.75.27-.5,1.73-.25,3.12.06.34.12.67.17,1.01.16,1.16-.28,1.85-.77,2.61-.38.6-.8,1.25-.86,2.23-.04.61.04,1.24.2,1.86.18.72.46,1.43.78,2.06h0s.07.09.13.12c.07.04.15.07.22.07h0ZM19.31,18.76h-1.31c-.2,0-.42-.07-.61-.17-.19-.11-.36-.27-.45-.45h0c-.35-.69-.66-1.45-.85-2.23-.17-.7-.26-1.41-.22-2.1.07-1.2.54-1.93.98-2.62.4-.63.77-1.2.65-2.07-.04-.3-.1-.64-.16-.99-.3-1.71-.62-3.5.77-4,.2-.07.37-.11.55-.11.18,0,.35.04.55.11,1.38.5,1.07,2.28.77,3.99-.06.35-.12.69-.16.99-.12.87.25,1.45.65,2.07.44.68.91,1.42.98,2.62.04.72-.06,1.44-.22,2.09-.24.96-.61,1.77-.85,2.24-.09.18-.26.34-.45.45-.19.11-.41.17-.61.17h0Z"/>
    <path id="_319387448" data-name=" 319387448" class="cls-1" d="M7.28,13.04c-.14-.69-.46-1.21-.75-1.69-.46-.75-.89-1.44-.73-2.6.05-.38.11-.73.17-1.08.23-1.29.45-2.53-.25-2.79-.11-.04-.19-.06-.26-.06-.07,0-.15.02-.26.06-.7.26-.48,1.5-.25,2.8.06.34.12.69.17,1.07.15,1.16-.27,1.85-.73,2.6-.37.6-.77,1.25-.83,2.24-.02.29,0,.58.02.88h0c.29-.32.62-.6,1-.83.65-.4,1.41-.62,2.22-.62.16,0,.31,0,.47.03h0ZM7.21,10.94c.41.67.86,1.4.94,2.56l.04.54-.53-.13c-.13-.03-.27-.06-.42-.08-.14-.02-.28-.03-.42-.03-.66,0-1.28.19-1.81.51-.55.33-.99.81-1.28,1.38l-.74-.09c-.08-.35-.14-.7-.18-1.06-.03-.34-.04-.67-.02-1,.07-1.19.52-1.93.94-2.61.39-.63.74-1.21.63-2.08-.04-.31-.11-.68-.17-1.04-.29-1.62-.56-3.18.75-3.67.19-.07.36-.11.53-.11.17,0,.34.04.53.11,1.32.49,1.04,2.05.75,3.67-.06.36-.13.73-.17,1.04-.12.87.24,1.45.62,2.08h0Z"/>
    <path id="_319387928" data-name=" 319387928" class="cls-1" d="M6.81,13.02c1.18,0,2.24.48,3.02,1.25s1.25,1.84,1.25,3.02-.48,2.24-1.25,3.02c-.77.77-1.84,1.25-3.02,1.25s-2.24-.48-3.02-1.25-1.25-1.84-1.25-3.02.48-2.24,1.25-3.02c.77-.77,1.84-1.25,3.02-1.25h0ZM9.27,14.83c-.63-.63-1.5-1.02-2.45-1.02s-1.83.39-2.45,1.02c-.63.63-1.02,1.5-1.02,2.45s.39,1.83,1.02,2.45c.63.63,1.5,1.02,2.45,1.02s1.83-.39,2.45-1.02c.63-.63,1.02-1.5,1.02-2.45s-.39-1.83-1.02-2.45h0Z"/>
    <path id="_319387640" data-name=" 319387640" class="cls-1" d="M7.68,14.83c.28,0,.54.12.73.3h0c.19.19.3.45.3.73s-.12.54-.3.73h0c-.19.19-.45.31-.73.31s-.55-.12-.73-.3c-.19-.19-.3-.45-.3-.73s.12-.55.3-.73c.19-.19.45-.3.73-.3h0ZM7.86,15.69s-.1-.07-.17-.07-.13.03-.17.07c-.04.04-.07.1-.07.17s.03.13.07.17.1.07.17.07.13-.03.17-.07h0s.07-.1.07-.17-.03-.13-.07-.17h0s0,0,0,0Z"/>
  </g>
</svg>