<?xml version="1.0" encoding="UTF-8"?>
<svg id="Layer_1" data-name="Layer 1" xmlns="http://www.w3.org/2000/svg" viewBox="0 0 24 24">
  <defs>
    <style>
      .cls-1 {
        fill: #1e1e1e;
      }
    </style>
  </defs>
  <path class="cls-1" d="M20.37,15.63c-.26,0-.47.21-.47.47v2.33h-3.95l-3.32-4.98,4.7-2.71c.22-.13.3-.41.17-.64l-3.27-5.66c-.06-.11-.16-.19-.28-.22-.12-.03-.25-.02-.35.05L3.88,9.88c-.22.13-.3.41-.17.64l.7,1.21-2.02,1.17c-.22.13-.3.41-.17.64l1.4,2.43c.09.15.24.23.4.23.08,0,.16-.02.23-.06l2.02-1.17.7,1.21c.06.11.16.19.28.22.04.01.08.02.12.02.08,0,.16-.02.23-.06l4.2-2.42,3.49,5.24c.09.13.23.21.39.21h4.2v2.33c0,.26.21.47.47.47s.47-.21.47-.47v-5.6c0-.26-.21-.47-.47-.47ZM5.81,14.15l-1.62.93-.93-1.62,1.62-.93.93,1.62ZM7.56,15.31l-2.8-4.85,8.9-5.14,2.8,4.85-8.9,5.14Z"/>
  <path class="cls-1" d="M20.37,22.33c-.34,0-.62-.28-.62-.62v-2.18h-4.05c-.21,0-.4-.1-.52-.28l-3.41-5.12-4.07,2.35c-.14.08-.32.11-.47.06-.16-.04-.29-.15-.38-.29l-.62-1.08-1.89,1.09c-.29.17-.68.06-.85-.23l-1.4-2.43c-.17-.3-.07-.68.23-.85l1.89-1.09-.62-1.08c-.08-.14-.1-.31-.06-.47.04-.16.15-.29.29-.38l9.71-5.6c.14-.08.3-.11.47-.06.16.04.3.15.38.29l3.27,5.66c.08.14.1.31.06.47-.04.16-.15.29-.29.38l-4.55,2.63,3.18,4.77h3.71v-2.18c0-.34.28-.62.62-.62s.62.28.62.62v5.6c0,.34-.28.62-.62.62ZM11.87,13.72l3.57,5.36c.06.09.15.14.26.14h4.36v2.49c0,.17.14.31.31.31s.31-.14.31-.31v-5.6c0-.17-.14-.31-.31-.31s-.31.14-.31.31v2.49h-4.19l-3.46-5.19,4.84-2.79c.15-.09.2-.28.11-.43l-3.27-5.66c-.04-.07-.11-.12-.19-.15-.08-.02-.16-.01-.23.03L3.96,10.01c-.15.09-.2.28-.11.43l.78,1.35-2.16,1.25c-.15.09-.2.28-.11.43l1.4,2.43c.08.15.28.2.43.11l2.15-1.25.78,1.35c.04.07.11.12.19.15.07.02.16,0,.23-.03l4.33-2.5ZM7.5,15.52l-2.96-5.12,9.16-5.29,2.96,5.12-9.16,5.29ZM4.97,10.51l2.65,4.59,8.63-4.98-2.65-4.58-8.63,4.98ZM4.14,15.3l-1.09-1.89,1.88-1.09,1.09,1.89-1.88,1.09ZM3.47,13.53l.78,1.35,1.35-.78-.78-1.35-1.35.78Z"/>
</svg>