<?xml version="1.0" encoding="UTF-8"?>
<svg id="Layer_1" data-name="Layer 1" xmlns="http://www.w3.org/2000/svg" viewBox="0 0 24 24">
  <defs>
    <style>
      .cls-1 {
        fill: #1e1e1e;
      }
    </style>
  </defs>
  <path class="cls-1" d="M21.12,14.03h-.47c0-4.49-3.53-8.16-7.96-8.41v-.96h.94c.26,0,.47-.21.47-.47s-.21-.47-.47-.47h-2.81c-.26,0-.47.21-.47.47s.21.47.47.47h.94v.96c-4.43.25-7.96,3.92-7.96,8.41h-.47c-.77,0-1.41.63-1.41,1.41s.63,1.41,1.41,1.41h17.8c.77,0,1.41-.63,1.41-1.41s-.63-1.41-1.41-1.41ZM12.22,6.54c4.13,0,7.49,3.36,7.49,7.49H4.73c0-4.13,3.36-7.49,7.49-7.49ZM21.12,15.9H3.32c-.26,0-.47-.21-.47-.47s.21-.47.47-.47h17.8c.26,0,.47.21.47.47s-.21.47-.47.47Z"/>
  <path class="cls-1" d="M10.82,8.41c-1.26,0-2.75.68-3.25,2.19-.08.25.05.51.3.59.05.02.1.02.15.02.2,0,.38-.12.44-.32.41-1.23,1.68-1.55,2.37-1.55.26,0,.47-.21.47-.47s-.21-.47-.47-.47Z"/>
</svg>