<?xml version="1.0" encoding="UTF-8"?>
<svg id="Layer_1" data-name="Layer 1" xmlns="http://www.w3.org/2000/svg" viewBox="0 0 24 24">
  <defs>
    <style>
      .cls-1 {
        fill: #1c1717;
      }
    </style>
  </defs>
  <path class="cls-1" d="M17.05,17.93H6.95c-.48,0-.86-.39-.86-.86v-1.57c0-.91.74-1.65,1.65-1.65h8.51c.91,0,1.65.74,1.65,1.65v1.57c0,.48-.39.86-.86.86ZM7.74,14.49c-.55,0-1,.45-1,1v1.57c0,.12.1.22.22.22h10.09c.12,0,.21-.1.21-.22v-1.57c0-.55-.45-1-1-1H7.74Z"/>
  <path class="cls-1" d="M7.5,21.04h-1.05c-.52,0-.95-.42-.95-.95v-.8c0-.18.15-.32.32-.32s.32.15.32.32v.8c0,.16.13.3.3.3h1.05c.16,0,.3-.13.3-.3v-.8c0-.18.15-.32.32-.32s.32.15.32.32v.8c0,.52-.42.95-.95.95Z"/>
  <path class="cls-1" d="M4.55,13.64c-.64,0-1.15-.52-1.15-1.15s.52-1.15,1.15-1.15,1.15.52,1.15,1.15c0,.18-.15.32-.32.32s-.32-.15-.32-.32c0-.28-.23-.5-.5-.5s-.5.23-.5.5.23.5.5.5c.18,0,.32.15.32.32s-.15.32-.32.32Z"/>
  <path class="cls-1" d="M18.18,19.62H5.82c-.82,0-1.51-.65-1.57-1.48-.1-1.57-.49-2.53-1.49-3.65-.77-.87-.96-2.1-.47-3.13.45-.95,1.35-1.49,2.43-1.44.8.03,1.41.29,1.82.74.68.76.61,1.87.58,2.4v.06c-.06.89.08,1.15.08,1.15.11.14.07.34-.07.44-.14.11-.35.07-.46-.08-.06-.09-.27-.45-.2-1.56v-.06c.03-.48.09-1.36-.41-1.92-.29-.32-.75-.5-1.37-.53-.8-.03-1.47.37-1.81,1.07-.38.79-.23,1.74.37,2.42,1.09,1.23,1.54,2.33,1.65,4.04.03.49.44.87.92.87h12.36c.48,0,.89-.38.92-.87.11-1.71.56-2.81,1.65-4.04.6-.68.74-1.63.37-2.42-.34-.71-1.02-1.1-1.81-1.07-.62.03-1.07.21-1.37.53-.5.56-.44,1.44-.41,1.92v.06c.07,1.11-.13,1.48-.2,1.56-.11.14-.31.17-.45.06-.14-.1-.17-.29-.08-.44.01-.03.14-.31.08-1.15v-.06c-.04-.53-.11-1.64.58-2.4.41-.46,1.03-.71,1.82-.74,1.07-.05,1.97.49,2.43,1.44.49,1.03.31,2.26-.47,3.13-.99,1.12-1.38,2.08-1.49,3.65-.05.83-.74,1.48-1.57,1.48Z"/>
  <path class="cls-1" d="M17.56,21.04h-1.05c-.52,0-.95-.42-.95-.95v-.8c0-.18.15-.32.32-.32s.32.15.32.32v.8c0,.16.13.3.3.3h1.05c.16,0,.3-.13.3-.3v-.8c0-.18.15-.32.32-.32s.32.15.32.32v.8c0,.52-.42.95-.95.95Z"/>
  <path class="cls-1" d="M4.71,10.56c-.14,0-.26-.09-.31-.22-.04-.11-.89-2.71.62-4.83,1.21-1.69,3.56-2.55,6.97-2.55s5.76.86,6.97,2.55c1.52,2.12.66,4.72.62,4.83-.06.17-.24.26-.41.2-.17-.06-.26-.24-.2-.41,0-.02.79-2.41-.54-4.25-1.08-1.51-3.25-2.27-6.44-2.27s-5.35.76-6.44,2.27c-1.33,1.84-.55,4.23-.54,4.25.06.17-.03.35-.2.41-.03.01-.07.02-.1.02Z"/>
  <path class="cls-1" d="M19.29,13.64c-.18,0-.32-.15-.32-.32s.15-.32.32-.32c.28,0,.5-.23.5-.5s-.23-.5-.5-.5-.5.23-.5.5c0,.18-.15.32-.32.32s-.32-.15-.32-.32c0-.64.52-1.15,1.15-1.15s1.15.52,1.15,1.15-.52,1.15-1.15,1.15Z"/>
</svg>