<?xml version="1.0" encoding="UTF-8"?>
<svg id="Layer_1" data-name="Layer 1" xmlns="http://www.w3.org/2000/svg" viewBox="0 0 24 24">
  <defs>
    <style>
      .cls-1 {
        fill: #1e1e1e;
      }
    </style>
  </defs>
  <g id="Layer_2-2" data-name="Layer 2">
    <g id="Layer_1-2" data-name="Layer 1-2">
      <g id="_11_electric_charge_station" data-name=" 11 electric charge station">
        <path class="cls-1" d="M20.82,9.22h-.83c-.92,0-1.66-.74-1.66-1.66v-2.07c0-.23.19-.42.42-.42h3.32c.23,0,.42.19.42.42v2.07c0,.92-.74,1.66-1.66,1.66ZM19.16,5.9v1.66c0,.46.37.83.83.83h.83c.46,0,.83-.37.83-.83v-1.66h-2.49Z"/>
        <path class="cls-1" d="M19.58,5.9c-.23,0-.42-.19-.42-.42v-1.66c0-.23.19-.42.42-.42s.42.19.42.42v1.66c0,.23-.19.42-.42.42Z"/>
        <path class="cls-1" d="M21.24,5.9c-.23,0-.42-.19-.42-.42v-1.66c0-.23.19-.42.42-.42s.42.19.42.42v1.66c0,.23-.19.42-.42.42Z"/>
        <path class="cls-1" d="M19.16,17.93h-.42c-.92,0-1.66-.74-1.66-1.66v-2.07c0-.23-.19-.42-.41-.42h-4.56c-.23,0-.41-.19-.41-.42s.19-.42.41-.42h4.56c.69,0,1.24.56,1.24,1.25v2.07c0,.46.37.83.83.83h.42c.46,0,.83-.37.83-.83v-7.47c0-.23.19-.42.42-.42s.42.19.42.42v7.47c0,.91-.74,1.66-1.66,1.66Z"/>
        <path class="cls-1" d="M12.94,20.83H4.64c-.23,0-.41-.19-.41-.42v-9.96c0-.23.19-.42.41-.42h8.3c.23,0,.41.19.41.42v9.96c0,.23-.19.42-.41.42ZM5.06,20h7.47v-9.12h-7.47v9.12Z"/>
        <path class="cls-1" d="M13.77,10.88H3.81c-.23,0-.41-.19-.41-.42V3.41c0-.46.37-.83.83-.83h9.13c.46,0,.83.37.83.83v7.05c0,.23-.19.42-.42.42ZM4.23,10.05h9.13V3.41H4.23v6.64Z"/>
        <path class="cls-1" d="M15.01,22.49H2.98c-.23,0-.41-.19-.41-.42v-1.66c0-.23.19-.42.41-.42h12.03c.23,0,.42.19.42.42v1.66c0,.23-.19.42-.42.42ZM3.4,21.66h11.2v-.83H3.4v.83Z"/>
        <path class="cls-1" d="M7.55,18.35c-.11,0-.21-.04-.29-.12-.16-.16-.16-.42,0-.59l1.78-1.78h-1.49c-.17,0-.32-.1-.38-.26-.06-.16-.03-.33.09-.45l2.49-2.49c.16-.16.43-.16.59,0,.16.16.16.42,0,.59l-1.78,1.78h1.49c.17,0,.32.1.38.26.06.16.03.33-.09.45l-2.49,2.49c-.08.08-.19.12-.29.12Z"/>
        <path class="cls-1" d="M12.11,9.22h-6.64c-.23,0-.41-.19-.41-.42v-4.15c0-.23.19-.42.41-.42h6.64c.23,0,.41.19.41.42v4.15c0,.23-.19.42-.41.42ZM5.89,8.39h5.81v-3.32h-5.81v3.32Z"/>
        <path class="cls-1" d="M6.72,7.56c-.23,0-.41-.19-.41-.42v-.83c0-.23.19-.42.41-.42s.41.19.41.42v.83c0,.23-.19.42-.41.42Z"/>
        <path class="cls-1" d="M7.96,7.56c-.23,0-.41-.19-.41-.42v-.83c0-.23.19-.42.41-.42s.41.19.41.42v.83c0,.23-.19.42-.41.42Z"/>
        <path class="cls-1" d="M11.69,14.61c-.23,0-.41-.19-.41-.42v-1.66c0-.23.19-.42.41-.42s.41.19.41.42v1.66c0,.23-.19.42-.41.42Z"/>
      </g>
    </g>
  </g>
</svg>