<?xml version="1.0" encoding="UTF-8"?>
<svg id="Layer_1" data-name="Layer 1" xmlns="http://www.w3.org/2000/svg" viewBox="0 0 24 24">
  <defs>
    <style>
      .cls-1 {
        fill: #1e1e1e;
      }
    </style>
  </defs>
  <path class="cls-1" d="M12,2.04C6.51,2.04,2.04,6.51,2.04,12s4.47,9.96,9.96,9.96,9.96-4.47,9.96-9.96S17.49,2.04,12,2.04ZM12,20.96c-4.94,0-8.96-4.02-8.96-8.96S7.06,3.04,12,3.04s8.96,4.02,8.96,8.96-4.02,8.96-8.96,8.96Z"/>
  <path class="cls-1" d="M17.48,9.01h-.5v-.5c0-.82-.67-1.49-1.49-1.49s-1.49.67-1.49,1.49v1.99h-3.98v-1.99c0-.82-.67-1.49-1.49-1.49s-1.49.67-1.49,1.49v.5h-.5c-.82,0-1.49.67-1.49,1.49v2.99c0,.82.67,1.49,1.49,1.49h.5v.5c0,.82.67,1.49,1.49,1.49s1.49-.67,1.49-1.49v-1.99h3.98v1.99c0,.82.67,1.49,1.49,1.49s1.49-.67,1.49-1.49v-.5h.5c.82,0,1.49-.67,1.49-1.49v-2.99c0-.82-.67-1.49-1.49-1.49ZM6.52,13.99c-.27,0-.5-.22-.5-.5v-2.99c0-.27.22-.5.5-.5h.5v3.98h-.5ZM9.01,15.48c0,.27-.22.5-.5.5s-.5-.22-.5-.5v-6.97c0-.27.22-.5.5-.5s.5.22.5.5v6.97ZM10.01,12.5v-1h3.98v1h-3.98ZM15.98,15.48c0,.27-.22.5-.5.5s-.5-.22-.5-.5v-6.97c0-.27.22-.5.5-.5s.5.22.5.5v6.97ZM17.97,13.49c0,.27-.22.5-.5.5h-.5v-3.98h.5c.27,0,.5.22.5.5v2.99Z"/>
</svg>