<?xml version="1.0" encoding="UTF-8"?>
<svg id="Layer_1" data-name="Layer 1" xmlns="http://www.w3.org/2000/svg" viewBox="0 0 24 24">
  <defs>
    <style>
      .cls-1 {
        fill: #1e1e1e;
      }
    </style>
  </defs>
  <g id="Basketball">
    <path class="cls-1" d="M20.96,10.22c-.08-.38-.17-.74-.3-1.1-.67-2.04-2.05-3.78-3.86-4.88-.35-.23-.73-.42-1.12-.59-1.13-.5-2.37-.78-3.68-.78-1.21,0-2.35.24-3.41.67h-.01c-.51.21-1.01.46-1.47.75-1.53.97-2.75,2.38-3.48,4.06-.21.47-.36.96-.49,1.47-.17.7-.26,1.41-.26,2.17,0,.62.06,1.21.17,1.79.08.38.18.74.3,1.1h0c.67,2.03,2.03,3.73,3.81,4.85.39.24.8.47,1.22.65h.01c1.11.48,2.34.74,3.62.74,1.35,0,2.64-.3,3.79-.82.41-.18.8-.4,1.17-.65,1.13-.73,2.09-1.7,2.8-2.84.29-.47.54-.97.74-1.49.41-1.03.63-2.15.63-3.32,0-.6-.06-1.21-.17-1.78ZM16.71,5.57c1.31.95,2.32,2.3,2.85,3.88-.39.18-.74.41-1.06.68-.3.25-.57.56-.8.9-.52-.51-1.11-.99-1.73-1.4.35-1.3.6-2.67.74-4.06ZM12,4.01c1.3,0,2.53.31,3.63.88-.1,1.41-.33,2.81-.67,4.12-.73-.4-1.52-.73-2.33-.99-.01-1.52-.92-2.84-2.51-3.78.6-.15,1.23-.23,1.88-.23ZM8.6,4.78c1.64.67,2.7,1.73,2.85,2.94-.92-.21-1.87-.31-2.85-.31-1.19,0-2.33.15-3.42.43.81-1.32,2.01-2.41,3.42-3.07ZM4.01,12c0-.97.17-1.89.49-2.75,1.27-.44,2.65-.7,4.1-.7.95,0,1.87.1,2.75.31-.52,1.59-2.65,3.42-7.19,4.64-.1-.49-.15-.99-.15-1.51ZM8.32,19.08c-1.79-.94-3.18-2.53-3.86-4.46,4.99-1.36,7.36-3.49,7.99-5.45.76.24,1.49.57,2.18.96-.81,2.58-2.09,4.91-3.76,6.76-.8.88-1.65,1.62-2.54,2.19ZM15.86,18.99c-1.14.64-2.46.99-3.86.99-.86,0-1.68-.14-2.44-.38.75-.55,1.47-1.2,2.14-1.95,1.72-1.92,3.05-4.27,3.91-6.89.55.39,1.06.82,1.52,1.29-.74,1.64-1.1,3.95-1.28,6.94ZM17.07,18.17c.15-2.12.42-3.84.9-5.13.54.7.97,1.45,1.3,2.26-.5,1.12-1.27,2.1-2.2,2.87ZM19.79,13.75c-.36-.66-.8-1.28-1.28-1.86.2-.35.46-.66.73-.9.18-.16.39-.3.6-.41.09.46.14.94.14,1.43,0,.6-.07,1.19-.19,1.75Z"/>
  </g>
</svg>