<?xml version="1.0" encoding="UTF-8"?>
<svg id="Layer_1" data-name="Layer 1" xmlns="http://www.w3.org/2000/svg" viewBox="0 0 24 24">
  <path d="M17.88,12.93h-5.06c.28-1.19,1.36-2.08,2.63-2.08,2.52,0,4.58-2.05,4.58-4.58V1.4h-1.24v4.88c0,1.84-1.49,3.33-3.33,3.33-1.97,0-3.6,1.44-3.9,3.33h-5.18c-2.68,0-4.85,2.17-4.85,4.83s2.18,4.83,4.85,4.83c1.29,0,2.53-.52,3.44-1.42h4.62c.91.91,2.15,1.42,3.44,1.42,2.68,0,4.85-2.17,4.85-4.83s-2.18-4.83-4.85-4.83h0ZM17.88,21.36c-1.03,0-2.02-.44-2.71-1.22l-.19-.21h-5.72l-.19.21c-.69.77-1.67,1.22-2.71,1.22-1.99,0-3.61-1.61-3.61-3.59s1.62-3.59,3.61-3.59h11.51c1.99,0,3.61,1.61,3.61,3.59s-1.62,3.59-3.61,3.59h0Z"/>
  <path d="M6.83,15.97h-1.24v1.21h-1.22v1.24h1.22v1.21h1.24v-1.21h1.22v-1.24h-1.22v-1.21Z"/>
  <path d="M18.62,15.92h1.24v1.16h-1.24v-1.16Z"/>
  <path d="M16.4,16.73h1.24v1.16h-1.24v-1.16Z"/>
  <path d="M18.62,18.05h1.24v1.16h-1.24v-1.16Z"/>
  <path d="M16.4,18.85h1.24v1.16h-1.24v-1.16Z"/>
  <path d="M10.39,17.51l-.46.49c-.23.25-.22.65.04.88.12.11.27.16.42.16.17,0,.33-.07.46-.2l.46-.49c.23-.25.22-.65-.04-.88-.25-.23-.65-.22-.88.04Z"/>
  <path d="M13.1,17.51l-.46.49c-.23.25-.22.65.04.88.12.11.27.16.42.16.17,0,.33-.07.46-.2l.46-.49c.23-.25.22-.65-.04-.88-.25-.23-.65-.22-.88.04Z"/>
  <path d="M10.7,15.19h2.75v1.24h-2.75v-1.24Z"/>
</svg>