<?xml version="1.0" encoding="UTF-8"?>
<svg id="Layer_1" data-name="Layer 1" xmlns="http://www.w3.org/2000/svg" viewBox="0 0 24 24">
  <defs>
    <style>
      .cls-1 {
        fill: #130038;
      }
    </style>
  </defs>
  <g>
    <path class="cls-1" d="M12.22,12.87c-2.44,0-4.43-1.99-4.43-4.43s1.99-4.43,4.43-4.43,4.43,1.99,4.43,4.43-1.99,4.43-4.43,4.43ZM12.22,5.56c-1.59,0-2.88,1.29-2.88,2.88s1.29,2.88,2.88,2.88,2.88-1.29,2.88-2.88-1.29-2.88-2.88-2.88Z"/>
    <path class="cls-1" d="M12.06,10.44c-.43,0-.77-.35-.77-.77s.35-.77.77-.77.75-.34.75-.75.35-.77.77-.77.77.35.77.77c0,1.27-1.03,2.3-2.3,2.3Z"/>
  </g>
  <g>
    <path class="cls-1" d="M12.22,18.72c-.22,0-.43-.09-.58-.26l-2.61-2.94s-.05-.06-.07-.09c-.28-.43-.31-.98-.06-1.44.25-.46.72-.74,1.24-.74h4.15c.52,0,.99.28,1.24.74.25.46.22,1.01-.06,1.44-.02.03-.04.06-.07.09l-2.61,2.94c-.15.17-.36.26-.58.26ZM10.46,14.79l1.76,1.99,1.76-1.99h-3.53Z"/>
    <path class="cls-1" d="M12.22,20.57c-.43,0-.77-.35-.77-.77v-1.85c0-.43.35-.77.77-.77s.77.35.77.77v1.85c0,.43-.35.77-.77.77Z"/>
  </g>
</svg>