<?xml version="1.0" encoding="UTF-8"?>
<svg id="Layer_1" data-name="Layer 1" xmlns="http://www.w3.org/2000/svg" viewBox="0 0 24 24">
  <defs>
    <style>
      .cls-1 {
        fill: #1e1e1e;
      }
    </style>
  </defs>
  <path class="cls-1" d="M16.22,2.24c-.19,0-.38.07-.51.23-.1.12-1.56,1.88-2.72,4.2.39.22.77.46,1.14.72.71-1.44,1.56-2.69,2.1-3.4,1.04,1.41,3.33,4.84,3.33,7.86,0,1.35-.19,2.4-.49,3.25.14,1.22-.03,2.25-.27,3.01,1.07-1.09,2.09-2.99,2.09-6.25,0-4.38-3.98-9.17-4.15-9.37-.13-.15-.32-.23-.51-.23ZM3.78,4.89c-.37,0-.66.31-.66.67,0,.02,0,.03,0,.05,0,0,.16,1.85.76,4.12.6,2.28,1.62,5.02,3.48,6.88,2.67,2.67,5.13,3.39,6.92,3.37.94-.01,1.7-.23,2.22-.43.3.88.38,1.62.38,1.62.04.37.37.63.73.59.37-.04.63-.37.59-.73h0s-.12-1.11-.61-2.35c.23-.46.6-1.39.61-2.62.02-1.79-.7-4.25-3.37-6.92-1.86-1.86-4.61-2.88-6.88-3.48-2.28-.6-4.12-.76-4.12-.76-.02,0-.04,0-.07,0ZM4.56,6.33c.69.09,1.69.25,3.07.61,2.16.57,4.72,1.57,6.28,3.14,2.47,2.47,3,4.53,2.98,5.97,0,.37-.04.69-.1.96-3.04-5.41-8.68-8.48-8.68-8.48-.1-.06-.21-.09-.32-.09-.37,0-.67.29-.68.65,0,.25.13.48.35.6,0,0,5.85,3.28,8.53,8.64-.34.14-.89.31-1.72.32-1.44.02-3.5-.51-5.97-2.98-1.56-1.56-2.57-4.12-3.14-6.28-.36-1.38-.52-2.38-.61-3.07Z"/>
</svg>