<?xml version="1.0" encoding="UTF-8"?>
<svg id="Layer_1" data-name="Layer 1" xmlns="http://www.w3.org/2000/svg" viewBox="0 0 24 24">
  <path d="M21.34,14.22c-.13-1.49-1.08-2.67-2.52-3.17l-1.64-.56c-2.49-.85-4.56-2.59-5.82-4.89l-.25-.46-.47.24c-1.89.95-3.36,1.33-4.76,1.24-.7-.05-1.35.37-1.62,1.02l-.52,1.31c-.63,1.58-.99,3.24-1.05,4.94v3.02c-.01,1.08.87,1.96,1.95,1.96h3c.51,0,1.02-.13,1.47-.37.51-.28,1.12-.33,1.67-.13l.91.32c.33.12.68.18,1.04.18h3.66c1.2,0,2.36-.43,3.27-1.22.88-.76,1.5-1.79,1.69-2.93,0,0,.04-.33.02-.49h0ZM10.65,6.58c.13.22.27.43.41.63l-1.53,1.07.63.9,1.57-1.1c.27.32.56.62.86.91l-1.48,1.04.63.9,1.71-1.2c.36.28.73.53,1.12.77l-1.41.98.63.9,1.86-1.3c.37.17.76.33,1.15.46l.09.03-1.41.99.63.9,2.07-1.45.27.09c1.03.35,1.69,1.18,1.79,2.23-1.21.91-1.95,1.24-2.15,1.24h-5.11c-.39,0-.77-.1-1.1-.28l-1.2-.66c-.25-.14-.53-.21-.8-.21-.44,0-.87.17-1.19.49-.43.43-.99.66-1.59.66h-2.48c-.48,0-.86-.39-.86-.86v-.24c0-1.11.13-2.2.4-3.27h.35c1.96,0,3.55-1.59,3.55-3.55v-.11c.81-.18,1.66-.49,2.6-.93h0ZM4.74,9.35l.52-1.31c.09-.22.3-.35.53-.34.38.03.77.02,1.16-.02-.03,1.33-1.12,2.39-2.45,2.39h-.03c.08-.25.17-.49.27-.73h0ZM18.91,16.82c-.71.61-1.61.95-2.55.95h-3.66c-.23,0-.45-.04-.67-.12l-.91-.32c-.84-.3-1.78-.23-2.56.2-.29.16-.62.24-.95.24h-3c-.48,0-.86-.39-.86-.86v-.46c.26.13.55.2.86.2h2.48c.89,0,1.73-.35,2.37-.98.18-.18.47-.22.69-.1l1.2.66c.5.27,1.06.42,1.63.42h5.11c.35,0,.83-.18,1.44-.54-.18.26-.39.5-.64.71h0Z"/>
</svg>