<?xml version="1.0" encoding="UTF-8"?>
<svg id="Layer_1" data-name="Layer 1" xmlns="http://www.w3.org/2000/svg" viewBox="0 0 24 24">
  <path d="M19.67,3.1c-1.42-1.42-3.66-1.53-5.2-.32l-.6-.6-.84.84.62.62c-.55.8-.78,1.75-.68,2.68l-6.02,6.99c-.47.55-.55,1.31-.26,1.93l-2.83,2.83c-.44.44-.69,1.03-.69,1.65s.24,1.21.69,1.65c.44.44,1.03.69,1.65.69s1.21-.24,1.65-.69l2.23-2.23c.4-.4,1.04-.4,1.44,0,.19.19.3.45.3.72s-.11.53-.3.72l-.64.64.84.84.64-.64c.42-.42.65-.97.65-1.56s-.23-1.14-.65-1.56c-.86-.86-2.26-.86-3.12,0l-2.23,2.23c-.22.22-.51.34-.82.34s-.6-.12-.82-.34-.34-.51-.34-.82.12-.6.34-.82l2.83-2.83c.24.11.51.17.77.17.41,0,.83-.14,1.16-.43l6.99-6.02c.14.02.29.02.43.02.79,0,1.57-.23,2.24-.7l.62.62.84-.84-.6-.6c1.2-1.54,1.1-3.78-.32-5.2h0ZM16.88,3.13c.7,0,1.41.27,1.95.8.96.96,1.06,2.45.31,3.52l-3.83-3.83c.47-.33,1.02-.49,1.57-.49h0ZM7.88,14.88c-.22-.22-.23-.58-.03-.81l.4-.46.91.91-.46.4c-.24.2-.59.19-.81-.03ZM10.06,13.74l-1.03-1.03,4.35-5.05c.18.36.43.7.73,1s.64.54,1,.73l-5.05,4.35ZM14.94,7.83c-.9-.9-1.05-2.28-.43-3.33l3.76,3.76c-1.05.61-2.43.47-3.33-.43Z"/>
</svg>