<?xml version="1.0" encoding="UTF-8"?>
<svg id="Layer_1" data-name="Layer 1" xmlns="http://www.w3.org/2000/svg" viewBox="0 0 24 24">
  <defs>
    <style>
      .cls-1 {
        fill: #1e1e1e;
      }
    </style>
  </defs>
  <path class="cls-1" d="M12,19.78c-6.58,0-10-3.53-10.15-3.68-.18-.19-.17-.49.02-.67.19-.18.49-.17.67.02.03.03,3.31,3.39,9.46,3.39s9.43-3.35,9.46-3.39c.18-.19.48-.2.67-.02.19.18.2.48.02.67-.14.15-3.57,3.68-10.15,3.68Z"/>
  <path class="cls-1" d="M11.61,15.83c-1.61,0-3.21-.29-4.74-.86-.78-.29-1.42-1.23-1.42-2.08v-2.72c0-.44.17-.81.49-1.03.34-.24.79-.26,1.27-.09,2.07.78,4.31.99,6.49.63.22-1.14,1.15-4.73,3.93-4.85,1.88-.12,3.26.74,3.32.78.21.13.28.39.18.61-.05.1-1.11,2.39.46,3.17.23.11.33.38.22.61-.43.99-1.64.87-2.22.67-.13-.05-.24-.15-.29-.28,0-.01-.53-1.32-1.14-1.12-.18.06-.38.17-.43.5.04.13.06.26.06.41v2.72c0,.85-.64,1.78-1.42,2.08-1.53.57-3.13.86-4.74.86ZM6.62,9.89c-.06,0-.11.01-.14.03-.07.05-.08.19-.08.25v2.72c0,.46.39,1.03.81,1.19,2.84,1.07,5.97,1.07,8.82,0,.42-.16.81-.73.81-1.19v-2.72c0-.07,0-.13-.03-.17-.03-.07-.04-.14-.04-.21.04-.71.43-1.22,1.09-1.43,1.08-.35,1.87.66,2.23,1.46.14.03.33.05.49.03-1.07-.95-.88-2.56-.5-3.61-.47-.21-1.35-.52-2.41-.46-2.47.11-3.09,4.33-3.1,4.38-.03.2-.18.36-.38.4-2.45.48-4.99.27-7.32-.61-.1-.04-.19-.05-.25-.05Z"/>
  <path class="cls-1" d="M5.41,18.37s-.03,0-.05,0c-.26-.03-.45-.26-.42-.52l.51-4.61c.03-.26.27-.45.52-.42.26.03.45.26.42.52l-.51,4.61c-.03.24-.23.42-.47.42Z"/>
  <path class="cls-1" d="M6.76,18.92c-.05,0-.11,0-.16-.03-.25-.09-.38-.36-.29-.61l1.28-3.59c.09-.25.36-.37.61-.29.25.09.38.36.29.61l-1.28,3.59c-.07.19-.25.31-.45.31Z"/>
  <path class="cls-1" d="M16.51,19.14c-.19,0-.36-.11-.44-.29l-1.57-3.74c-.1-.24.01-.52.25-.62.25-.1.52.01.62.25l1.57,3.74c.1.24-.01.52-.25.62-.06.03-.12.04-.18.04Z"/>
  <path class="cls-1" d="M17.58,18.77c-.21,0-.4-.14-.46-.35l-1.07-3.94c-.07-.25.08-.51.33-.58.26-.07.51.08.58.33l1.07,3.94c.07.25-.08.51-.33.58-.04.01-.08.02-.12.02Z"/>
  <path class="cls-1" d="M20.42,6.34c-.23,0-.44-.17-.47-.41l-.17-1.17c-.04-.26.14-.5.4-.54.27-.03.5.14.54.4l.17,1.17c.04.26-.14.5-.4.54-.02,0-.05,0-.07,0Z"/>
  <path class="cls-1" d="M4.37,14.11c-.22,0-.41-.15-.46-.37-.13-.58-.73-3.56.3-4.6.42-.42.85-.59,1.26-.53.57.09.84.59.87.65.12.23.03.52-.21.64-.23.12-.52.03-.64-.21-.02-.04-.1-.14-.17-.15-.09-.02-.23.05-.44.26-.5.5-.33,2.48-.05,3.73.06.26-.1.51-.36.57-.03,0-.07.01-.1.01Z"/>
</svg>