<?xml version="1.0" encoding="UTF-8"?>
<svg id="Layer_1" data-name="Layer 1" xmlns="http://www.w3.org/2000/svg" viewBox="0 0 24 24">
  <path d="M22.66,14.71c-.12-.05-.26-.02-.36.07-.01.01-.02.03-.04.04-.9,1.27-2.78,1.27-3.68,0,0-.01-.02-.02-.03-.03-.01-.02-.03-.03-.05-.04-.43-1.55-1.42-2.91-2.76-3.8.5-.74.77-1.63.77-2.53,0-.66.06-3.53-.13-3.82-.48-2.01-2.31-3.46-4.4-3.46s-3.91,1.45-4.39,3.46c-.19.29-.13,3.15-.13,3.82,0,.9.27,1.79.77,2.53-1.34.89-2.33,2.25-2.76,3.79-.03.02-.06.04-.08.07-.9,1.27-2.78,1.27-3.68,0-.08-.12-.23-.16-.36-.12-.13.04-.23.17-.23.31v7.52c0,.18.15.33.33.33h21.08c.18,0,.33-.15.33-.33v-7.52c0-.13-.08-.25-.2-.3ZM8.12,5.67c0-.2.02-.4.05-.6.3-.05.61-.09.9-.12.17.29.49.48.84.48h.86c.42,0,.78-.27.91-.65.21,0,.42,0,.62,0,.14.38.49.65.91.65h.86c.35,0,.67-.19.84-.48.3.03.6.07.9.12.03.2.05.4.05.6v.47h-7.75v-.47ZM11.1,4.46h0c0,.18-.15.32-.33.32h-.86c-.18,0-.33-.15-.33-.33s.15-.33.33-.33h.86c.18,0,.33.15.33.33h0s0,0,0,0ZM14.09,4.78h-.86c-.18,0-.32-.14-.33-.33,0-.18.15-.33.33-.33h.86c.18,0,.33.15.33.33s-.15.33-.33.33ZM12,1.79c1.65,0,3.12,1.07,3.65,2.59-.2-.03-.4-.05-.6-.08-.07-.47-.47-.83-.96-.83h-.86c-.42,0-.78.27-.92.65-.21,0-.41,0-.62,0-.13-.38-.49-.65-.92-.65h-.86c-.49,0-.89.36-.96.83-.2.02-.4.05-.6.08.54-1.52,2-2.59,3.65-2.59ZM8.12,6.78h7.75v1.64c0,.88-.3,1.74-.85,2.42-.74.93-1.84,1.46-3.03,1.46s-2.26-.5-3.03-1.46c0,0,0,0,0,0-.55-.68-.85-1.54-.85-2.42v-1.64ZM8.65,11.47c.84.93,2.05,1.48,3.35,1.48s2.52-.57,3.35-1.48c1.26.82,2.18,2.09,2.56,3.54-.53.61-1.36.89-2.17.72v-1.27c0-.18-.15-.33-.33-.33s-.33.15-.33.33v1.02c-.28-.16-.52-.38-.72-.65-.13-.18-.4-.18-.53,0-.91,1.27-2.78,1.27-3.69,0-.13-.18-.4-.18-.53,0-.19.27-.44.49-.71.65v-1.02c0-.18-.15-.33-.33-.33s-.33.15-.33.33v1.27s0,0,0,0c-.82.17-1.64-.12-2.17-.72.38-1.45,1.3-2.72,2.56-3.54ZM5.68,15.52c1.09,1.15,3.02,1.26,4.21,0,1.14,1.2,3.06,1.21,4.21,0,1.14,1.21,3.09,1.19,4.21,0,1.06,1.13,2.77,1.17,3.89.3v2.16c-.92,1.2-2.74,1.18-3.62-.07-.13-.18-.41-.18-.54,0-.9,1.27-2.78,1.27-3.68,0-.13-.18-.4-.18-.53,0-.91,1.28-2.79,1.26-3.69,0-.06-.09-.16-.14-.27-.14h0c-.11,0-.2.05-.27.14-.9,1.27-2.78,1.27-3.68,0-.13-.18-.4-.18-.53,0-.88,1.25-2.7,1.26-3.62.07v-2.16c1.13.88,2.83.82,3.89-.3ZM22.21,22.21H1.79v-3.3c1.15.9,2.84.8,3.89-.3,1.14,1.2,3.08,1.2,4.22,0,1.14,1.2,3.07,1.2,4.21,0,1.14,1.21,3.08,1.2,4.22,0,1.05,1.12,2.77,1.18,3.89.3v3.3Z"/>
</svg>