<?xml version="1.0" encoding="UTF-8"?>
<svg id="Layer_1" data-name="Layer 1" xmlns="http://www.w3.org/2000/svg" viewBox="0 0 24 24">
  <defs>
    <style>
      .cls-1 {
        fill: #231f20;
      }
    </style>
  </defs>
  <g id="_1" data-name="1">
    <path class="cls-1" d="M17.42,19.73h-5.4V5h5.4v14.73ZM12.72,19.04h4.01V5.69h-4.01v13.35Z"/>
    <path class="cls-1" d="M14.72,17.74c-.71,0-1.29-.58-1.29-1.29s.58-1.29,1.29-1.29,1.29.58,1.29,1.29-.58,1.29-1.29,1.29ZM14.72,15.85c-.33,0-.6.27-.6.6s.27.6.6.6.6-.27.6-.6-.27-.6-.6-.6Z"/>
    <rect class="cls-1" x="12.37" y="7.81" width="3.77" height=".69"/>
    <rect class="cls-1" x="12.37" y="9.33" width="3.77" height=".69"/>
    <g>
      <path class="cls-1" d="M22.13,19.73h-5.4V5h5.4v14.73ZM17.42,19.04h4.01V5.69h-4.01v13.35Z"/>
      <path class="cls-1" d="M19.43,17.74c-.71,0-1.29-.58-1.29-1.29s.58-1.29,1.29-1.29,1.29.58,1.29,1.29-.58,1.29-1.29,1.29ZM19.43,15.85c-.33,0-.6.27-.6.6s.27.6.6.6.6-.27.6-.6-.27-.6-.6-.6Z"/>
      <rect class="cls-1" x="17.08" y="7.81" width="3.77" height=".69"/>
      <rect class="cls-1" x="17.08" y="9.33" width="3.77" height=".69"/>
    </g>
    <path class="cls-1" d="M6.85,19.84l-4.98-2.09L7.58,4.16l4.98,2.09-5.71,13.58ZM2.78,17.38l3.7,1.55,5.17-12.31-3.7-1.55-5.17,12.31Z"/>
    <path class="cls-1" d="M5.63,17.06c-.17,0-.34-.03-.5-.1-.66-.28-.97-1.04-.69-1.69.28-.66,1.03-.97,1.69-.69.32.13.57.38.7.7.13.32.13.67,0,.99-.13.32-.38.57-.7.7-.16.06-.32.1-.49.1ZM5.63,15.17c-.23,0-.46.14-.55.37h0c-.13.31.02.66.32.79.15.06.31.06.46,0,.15-.06.26-.18.33-.32.06-.15.06-.31,0-.46s-.18-.26-.32-.33c-.08-.03-.15-.05-.23-.05Z"/>
    <rect class="cls-1" x="8.06" y="6" width=".69" height="3.77" transform="translate(-2.12 12.58) rotate(-67.21)"/>
    <rect class="cls-1" x="7.47" y="7.4" width=".69" height="3.77" transform="translate(-3.78 12.9) rotate(-67.21)"/>
  </g>
</svg>