<?xml version="1.0" encoding="UTF-8"?>
<svg id="Layer_1" data-name="Layer 1" xmlns="http://www.w3.org/2000/svg" viewBox="0 0 24 24">
  <defs>
    <style>
      .cls-1 {
        fill: #1c1717;
      }
    </style>
  </defs>
  <path class="cls-1" d="M18.92,16.55H5.08c-.87,0-1.59-.71-1.59-1.59v-3.77c0-.24-.19-.43-.43-.43h-.31c-.63,0-1.15-.52-1.15-1.15s.52-1.15,1.15-1.15h.99c1.18,0,2.15.96,2.15,2.15v3.55h12.2v-3.55c0-1.18.96-2.15,2.15-2.15h.99c.63,0,1.15.52,1.15,1.15s-.52,1.15-1.15,1.15h-.31c-.24,0-.43.19-.43.43v3.77c0,.87-.71,1.59-1.59,1.59ZM2.76,9.14c-.26,0-.48.21-.48.48s.21.48.48.48h.31c.61,0,1.1.49,1.1,1.1v3.77c0,.5.41.92.91.92h13.84c.5,0,.91-.41.91-.92v-3.77c0-.61.49-1.1,1.1-1.1h.31c.26,0,.48-.21.48-.48s-.21-.48-.48-.48h-.99c-.82,0-1.48.66-1.48,1.48v3.89c0,.18-.15.34-.34.34H5.56c-.18,0-.34-.15-.34-.34v-3.89c0-.82-.66-1.48-1.48-1.48h-.99Z"/>
  <path class="cls-1" d="M12,14.84h-6.44c-.18,0-.34-.15-.34-.34,0-1.65,1.34-2.99,2.99-2.99h1.13c1.65,0,2.99,1.34,2.99,2.99,0,.18-.15.34-.34.34ZM5.92,14.17h5.72c-.16-1.12-1.13-1.98-2.3-1.98h-1.13c-1.17,0-2.13.86-2.3,1.98Z"/>
  <path class="cls-1" d="M18.44,14.84h-6.44c-.18,0-.34-.15-.34-.34,0-1.65,1.34-2.99,2.99-2.99h1.13c1.65,0,2.99,1.34,2.99,2.99,0,.18-.15.34-.34.34ZM12.36,14.17h5.72c-.16-1.12-1.13-1.98-2.3-1.98h-1.13c-1.17,0-2.13.86-2.3,1.98Z"/>
  <path class="cls-1" d="M19.11,19.22c-.3,0-.58-.16-.73-.42l-.52-.67c-.1-.17-.24-.25-.39-.25H6.53c-.15,0-.29.08-.37.21l-.56.74c-.13.22-.41.38-.71.38-.46,0-.84-.38-.84-.84,0-.1.02-.2.05-.29l.7-1.99c.06-.18.25-.27.43-.2.18.06.27.25.2.43l-.71,2c-.01.22.23.28.31.14l.56-.74c.17-.3.54-.51.93-.51h10.95c.39,0,.75.21.95.54l.52.67c.12.2.27.09.31.05.02-.03.05-.08.02-.15l-.71-2c-.06-.17.03-.37.2-.43.17-.06.37.03.43.2l.71,2c.09.26.05.54-.11.76s-.41.36-.69.36Z"/>
  <path class="cls-1" d="M19.61,9.26c-.18,0-.34-.15-.34-.34v-2.03c0-.8-.65-1.45-1.45-1.45H6.18c-.8,0-1.45.65-1.45,1.45v2.03c0,.18-.15.34-.34.34s-.34-.15-.34-.34v-2.03c0-1.17.95-2.12,2.12-2.12h11.64c1.17,0,2.12.95,2.12,2.12v2.03c0,.18-.15.34-.34.34Z"/>
  <path class="cls-1" d="M15.31,9.14h-6.61c-.18,0-.34-.15-.34-.34s.15-.34.34-.34h6.61c.18,0,.34.15.34.34s-.15.34-.34.34Z"/>
</svg>