<?xml version="1.0" encoding="UTF-8"?>
<svg id="Layer_1" data-name="Layer 1" xmlns="http://www.w3.org/2000/svg" viewBox="0 0 24 24">
  <defs>
    <style>
      .cls-1 {
        fill: #231f20;
      }
    </style>
  </defs>
  <g id="_3" data-name="3">
    <path class="cls-1" d="M21.34,19.32H2.66V6.81h18.68v12.51ZM3.31,18.66h17.38V7.46H3.31v11.2Z"/>
    <polygon class="cls-1" points="9.3 11.71 6.06 11.71 2.73 7.33 3.25 6.94 6.39 11.06 9.3 11.06 9.3 11.71"/>
    <polygon class="cls-1" points="17.94 11.71 13.78 11.71 13.78 11.06 17.61 11.06 19.39 8.72 19.91 9.12 17.94 11.71"/>
    <path class="cls-1" d="M9.89,7.46h-.65v-1.94c0-.46.37-.84.84-.84h3.86c.46,0,.84.37.84.84v.59h-.65v-.59c0-.1-.08-.18-.18-.18h-3.86c-.1,0-.18.08-.18.18v1.94Z"/>
    <path class="cls-1" d="M14.11,12.73h-4.21v-2.68h4.21v2.68ZM10.55,12.07h2.9v-1.38h-2.9v1.38Z"/>
    <polygon class="cls-1" points="18.48 16.93 5.52 16.93 5.52 15.26 6.17 15.26 6.17 16.27 17.83 16.27 17.83 14.24 18.48 14.24 18.48 16.93"/>
  </g>
</svg>