<?xml version="1.0" encoding="UTF-8"?>
<svg id="Layer_1" data-name="Layer 1" xmlns="http://www.w3.org/2000/svg" viewBox="0 0 24 24">
  <path d="M17.3,12.92l3.89,1.24v-6.4l-3.89,1.24h-1.51v-1.01h-1.5v-.55c1.13-.25,1.97-1.23,1.97-2.4,0-1.36-1.13-2.46-2.53-2.46-1.2,0-2.2.82-2.46,1.91h-.52c-.26-1.09-1.26-1.91-2.46-1.91-1.39,0-2.53,1.1-2.53,2.46,0,1.17.85,2.16,1.97,2.4v.55h-1.5v1.01h-2.37v.83h-1.05v1.11h1.05v.83h2.37v3.64h2.58c0,.06,0,.12,0,.18,0,.18.02.35.06.51l-5.48,2.46.46,1.01,5.57-2.5c.28.29.64.5,1.05.6v.54h-.57c-1.46,0-2.64,1.15-2.64,2.57v.63h1.11v-.63c0-.81.69-1.46,1.53-1.46h.57v2.1h1.11v-2.1h.57c.84,0,1.53.66,1.53,1.46v.63h1.11v-.63c0-1.42-1.18-2.57-2.64-2.57h-.57v-.54c.95-.24,1.65-1.08,1.65-2.09,0-.06,0-.12,0-.18h5.99v-1.11h-3.41v-1.38h1.51,0ZM17.94,11.96v-.45h2.14v1.13l-2.14-.68ZM20.08,10.4h-2.14v-.45l2.14-.68v1.13ZM16.83,10.11v1.7h-1.04v-1.7h1.04ZM13.73,3.69c.78,0,1.42.61,1.42,1.35s-.64,1.35-1.42,1.35-1.42-.61-1.42-1.35.64-1.35,1.42-1.35ZM6.87,5.04c0-.75.64-1.35,1.42-1.35s1.42.61,1.42,1.35-.64,1.35-1.42,1.35-1.42-.61-1.42-1.35ZM8.84,7.44c.94-.21,1.69-.93,1.91-1.85h.52c.22.92.96,1.64,1.91,1.85v.55h-4.33v-.55ZM14.68,9.1v1.56h-7.34v-1.56h7.34ZM4.97,10.66v-.55h1.26v.55h-1.26ZM12.11,15.6c0,.58-.49,1.04-1.1,1.04s-1.1-.47-1.1-1.04c0-.06,0-.12.02-.18h2.17c.01.06.02.12.02.18ZM14.68,14.3h-7.34v-2.53h7.34v2.53Z"/>
</svg>