<?xml version="1.0" encoding="UTF-8"?>
<svg id="Layer_1" data-name="Layer 1" xmlns="http://www.w3.org/2000/svg" viewBox="0 0 24 24">
  <defs>
    <style>
      .cls-1 {
        fill: #1e1e1e;
      }
    </style>
  </defs>
  <path class="cls-1" d="M19.1,15.65H4.9c-1.14,0-2.07-.93-2.07-2.08s.93-2.07,2.07-2.07h14.21c1.14,0,2.07.93,2.07,2.07s-.93,2.08-2.07,2.08ZM4.9,12.5c-.6,0-1.08.49-1.08,1.08s.49,1.08,1.08,1.08h14.21c.6,0,1.08-.49,1.08-1.08s-.49-1.08-1.08-1.08H4.9Z"/>
  <path class="cls-1" d="M19.6,21.18H4.4v-6.52h15.2v6.52ZM5.39,20.19h13.22v-4.53H5.39v4.53Z"/>
  <path class="cls-1" d="M21.47,21.18H2.53c-.27,0-.5-.22-.5-.5s.22-.5.5-.5h18.94c.27,0,.5.22.5.5s-.22.5-.5.5Z"/>
  <path class="cls-1" d="M8.05,21.18c-.27,0-.5-.22-.5-.5v-5.52c0-.27.22-.5.5-.5s.5.22.5.5v5.52c0,.27-.22.5-.5.5Z"/>
  <path class="cls-1" d="M12,21.18c-.27,0-.5-.22-.5-.5v-5.52c0-.27.22-.5.5-.5s.5.22.5.5v5.52c0,.27-.22.5-.5.5Z"/>
  <path class="cls-1" d="M15.95,21.18c-.27,0-.5-.22-.5-.5v-5.52c0-.27.22-.5.5-.5s.5.22.5.5v5.52c0,.27-.22.5-.5.5Z"/>
  <path class="cls-1" d="M7.26,10.13c-.11,0-.22-.04-.31-.11-1.64-1.32-1.24-2.47-.95-3.31.28-.8.46-1.33-.63-2.21-.21-.17-.25-.48-.07-.7.17-.21.49-.25.7-.07,1.64,1.32,1.24,2.47.95,3.31-.28.8-.46,1.33.63,2.21.21.17.25.48.07.7-.1.12-.24.18-.39.18Z"/>
  <path class="cls-1" d="M12.79,9.34c-.11,0-.22-.04-.31-.11-1.64-1.32-1.24-2.47-.95-3.31.28-.8.46-1.33-.63-2.21-.21-.17-.25-.48-.07-.7.17-.21.49-.25.7-.07,1.64,1.32,1.24,2.47.95,3.31-.28.8-.46,1.33.63,2.21.21.17.25.48.07.7-.1.12-.24.18-.39.18Z"/>
  <path class="cls-1" d="M18.31,10.13c-.11,0-.22-.04-.31-.11-1.64-1.32-1.24-2.47-.95-3.31.28-.8.46-1.33-.63-2.21-.21-.17-.25-.48-.07-.7.17-.21.49-.25.7-.07,1.64,1.32,1.24,2.47.95,3.31-.28.8-.46,1.33.63,2.21.21.17.25.48.07.7-.1.12-.24.18-.39.18Z"/>
</svg>