<?xml version="1.0" encoding="UTF-8"?>
<svg id="Layer_1" data-name="Layer 1" xmlns="http://www.w3.org/2000/svg" viewBox="0 0 24 24">
  <defs>
    <style>
      .cls-1 {
        fill: #130038;
      }
    </style>
  </defs>
  <path class="cls-1" d="M18.33,21.6H5.67c-1.71,0-3.22-.9-4.04-2.4-.82-1.5-.75-3.26.19-4.7l6.61-10.17c.79-1.21,2.12-1.94,3.57-1.94s2.78.72,3.57,1.94l6.61,10.17c.93,1.44,1,3.19.19,4.7-.82,1.51-2.33,2.4-4.04,2.4ZM12,3.41c-1.1,0-2.12.55-2.73,1.48L2.66,15.05c-.73,1.12-.78,2.49-.15,3.66s1.81,1.88,3.15,1.88h12.67c1.34,0,2.51-.7,3.15-1.88.64-1.17.58-2.54-.15-3.66l-6.61-10.17c-.6-.93-1.62-1.48-2.72-1.48Z"/>
  <g>
    <path class="cls-1" d="M6.18,19.72c-1.46,0-2.65-1.19-2.65-2.65s1.19-2.65,2.65-2.65,2.65,1.19,2.65,2.65-1.19,2.65-2.65,2.65ZM6.18,15.43c-.91,0-1.64.74-1.64,1.64s.74,1.64,1.64,1.64,1.64-.74,1.64-1.64-.74-1.64-1.64-1.64Z"/>
    <path class="cls-1" d="M6.18,18.41c-.28,0-.5-.23-.5-.5s.23-.5.5-.5c.18,0,.33-.15.33-.33,0-.28.23-.5.5-.5s.5.23.5.5c0,.74-.6,1.34-1.34,1.34Z"/>
    <path class="cls-1" d="M12,19.72c-1.46,0-2.65-1.19-2.65-2.65s1.19-2.65,2.65-2.65,2.65,1.19,2.65,2.65-1.19,2.65-2.65,2.65ZM12,15.43c-.91,0-1.64.74-1.64,1.64s.74,1.64,1.64,1.64,1.64-.74,1.64-1.64-.74-1.64-1.64-1.64Z"/>
    <path class="cls-1" d="M12,18.41c-.28,0-.5-.23-.5-.5s.23-.5.5-.5c.18,0,.33-.15.33-.33,0-.28.23-.5.5-.5s.5.23.5.5c0,.74-.6,1.34-1.34,1.34Z"/>
    <path class="cls-1" d="M17.82,19.72c-1.46,0-2.65-1.19-2.65-2.65s1.19-2.65,2.65-2.65,2.65,1.19,2.65,2.65-1.19,2.65-2.65,2.65ZM17.82,15.43c-.91,0-1.64.74-1.64,1.64s.74,1.64,1.64,1.64,1.64-.74,1.64-1.64-.74-1.64-1.64-1.64Z"/>
    <path class="cls-1" d="M17.82,18.41c-.28,0-.5-.23-.5-.5s.23-.5.5-.5c.18,0,.33-.15.33-.33,0-.28.23-.5.5-.5s.5.23.5.5c0,.74-.6,1.34-1.34,1.34Z"/>
  </g>
  <g>
    <path class="cls-1" d="M9.1,14.78c-1.46,0-2.65-1.19-2.65-2.65s1.19-2.65,2.65-2.65,2.65,1.19,2.65,2.65-1.19,2.65-2.65,2.65ZM9.1,10.48c-.91,0-1.64.74-1.64,1.64s.74,1.64,1.64,1.64,1.64-.74,1.64-1.64-.74-1.64-1.64-1.64Z"/>
    <path class="cls-1" d="M9.1,13.46c-.28,0-.5-.23-.5-.5s.23-.5.5-.5c.18,0,.33-.15.33-.33,0-.28.23-.5.5-.5s.5.23.5.5c0,.74-.6,1.34-1.34,1.34Z"/>
    <path class="cls-1" d="M14.92,14.78c-1.46,0-2.65-1.19-2.65-2.65s1.19-2.65,2.65-2.65,2.65,1.19,2.65,2.65-1.19,2.65-2.65,2.65ZM14.92,10.48c-.91,0-1.64.74-1.64,1.64s.74,1.64,1.64,1.64,1.64-.74,1.64-1.64-.74-1.64-1.64-1.64Z"/>
    <path class="cls-1" d="M14.92,13.46c-.28,0-.5-.23-.5-.5s.23-.5.5-.5c.18,0,.33-.15.33-.33,0-.28.23-.5.5-.5s.5.23.5.5c0,.74-.6,1.34-1.34,1.34Z"/>
  </g>
  <path class="cls-1" d="M12,9.83c-1.46,0-2.65-1.19-2.65-2.65s1.19-2.65,2.65-2.65,2.65,1.19,2.65,2.65-1.19,2.65-2.65,2.65ZM12,5.53c-.91,0-1.64.74-1.64,1.64s.74,1.64,1.64,1.64,1.64-.74,1.64-1.64-.74-1.64-1.64-1.64Z"/>
  <path class="cls-1" d="M12,8.51c-.28,0-.5-.23-.5-.5s.23-.5.5-.5c.18,0,.33-.15.33-.33,0-.28.23-.5.5-.5s.5.23.5.5c0,.74-.6,1.34-1.34,1.34Z"/>
</svg>