<?xml version="1.0" encoding="UTF-8"?>
<svg id="Layer_1" data-name="Layer 1" xmlns="http://www.w3.org/2000/svg" viewBox="0 0 24 24">
  <path d="M20.91,5.22v2.38h-.62v-2.38h-1.18v2.38h-.62v-2.38h-1.18v1.28c-1.46-1.59-3.53-2.53-5.75-2.53-2.37,0-4.58,1.08-6.04,2.86-.24-1.31-1.38-2.3-2.75-2.3h-.85v13.82c0,.91.74,1.65,1.65,1.65s1.65-.74,1.65-1.65v-2.04c.45.62.99,1.18,1.6,1.65,1.37,1.05,3.01,1.6,4.73,1.6,2.67,0,5.08-1.36,6.49-3.47v2.26c0,.91.74,1.65,1.65,1.65s1.65-.74,1.65-1.65v-7.93c.45-.34.74-.88.74-1.49v-3.72h-1.18ZM20.91,8.95c0,.38-.31.69-.69.69h-1.04c-.38,0-.69-.31-.69-.69v-.16h2.42v.16ZM3.09,5.76c.73.16,1.28.81,1.28,1.58v4.03c0,.24-.19.43-.43.43h-.85v-6.04ZM3.56,18.84c-.26,0-.47-.21-.47-.47v-5.38h.85s.06,0,.09,0v5.38c0,.26-.21.47-.47.47ZM11.55,18.39c-2.9,0-5.49-1.93-6.33-4.69v-1.34c.21-.27.34-.62.34-.99v-2.4c1.09-2.32,3.43-3.81,5.99-3.81,2.38,0,4.57,1.28,5.75,3.34v.44c0,.61.29,1.15.74,1.49v2.63c-.61,3.09-3.33,5.33-6.49,5.33h0ZM19.7,18.84c-.26,0-.47-.21-.47-.47v-7.55h.94v7.55c0,.26-.21.47-.47.47h0Z"/>
  <path d="M11.55,6.59c-2.86,0-5.19,2.33-5.19,5.19s2.33,5.19,5.19,5.19,5.19-2.33,5.19-5.19-2.33-5.19-5.19-5.19h0ZM11.55,15.78c-2.21,0-4-1.8-4-4s1.8-4,4-4,4,1.8,4,4-1.8,4-4,4h0Z"/>
</svg>