<?xml version="1.0" encoding="UTF-8"?>
<svg id="Layer_1" data-name="Layer 1" xmlns="http://www.w3.org/2000/svg" viewBox="0 0 24 24">
  <path d="M11.1,13.88c-.14-.26-.47-.36-.73-.21-.26.14-.36.47-.21.73.37.67,1.07,1.08,1.84,1.08s1.48-.41,1.84-1.08c.14-.26.05-.59-.21-.73-.26-.14-.59-.05-.73.21-.18.32-.52.52-.9.52s-.72-.2-.9-.52h0Z"/>
  <path d="M20.64,17.61h-.16v-.16c0-.3-.24-.54-.54-.54-.18,0-.35.09-.44.23V7.53c0-2.59-2.11-4.7-4.71-4.7-.95,0-1.87.26-2.67.76-.76-.5-1.64-.76-2.57-.76-2.79,0-5.07,2.27-5.07,5.06v12.75c0,.3.24.54.54.54h13.93c.3,0,.54-.24.54-.54v-1.5c.1.14.26.23.44.23.3,0,.54-.24.54-.54v-.16h.16c.3,0,.54-.24.54-.54s-.24-.54-.54-.54h0ZM15.17,10.27h0s.03,0,.04,0c.48,0,.87.39.87.86,0,1.01,0,2.08,0,2.08,0,2.15-1.75,3.89-3.89,3.89h-.38c-2.15,0-3.89-1.75-3.89-3.89v-3.66c0-1.43,1.17-2.6,2.6-2.6h1.61c0,.07,0,.15,0,.22,0,1.69,1.36,3.08,3.05,3.1h0ZM11.81,18.18h.38c.42,0,.82-.05,1.2-.15v2.08h-2.79v-2.08c.39.1.79.15,1.2.15h0ZM18.43,20.1h-3.96v-2.48c1.6-.83,2.69-2.5,2.69-4.41,0,0,0-1.06,0-2.08,0-1.07-.88-1.94-1.95-1.94h-.03c-1.1-.01-1.99-.92-1.99-2.02,0-.2.03-.41.09-.6.05-.16.02-.34-.08-.48-.1-.14-.26-.22-.43-.22h-2.26c-2.03,0-3.68,1.65-3.68,3.68v3.66c0,1.92,1.09,3.59,2.69,4.41v2.48h-3.96V7.89c0-2.2,1.79-3.99,3.99-3.99.81,0,1.59.26,2.23.76.19.15.45.15.65,0,.69-.5,1.5-.77,2.36-.77,2,0,3.63,1.63,3.63,3.63v12.58Z"/>
  <path d="M16.34,6.15h-.16v-.16c0-.3-.24-.54-.54-.54s-.54.24-.54.54v.16h-.16c-.3,0-.54.24-.54.54s.24.54.54.54h.16v.16c0,.3.24.54.54.54s.54-.24.54-.54v-.16h.16c.3,0,.54-.24.54-.54s-.24-.54-.54-.54Z"/>
  <path d="M4.59,4.59h.16c.3,0,.54-.24.54-.54s-.24-.54-.54-.54h-.16v-.16c0-.3-.24-.54-.54-.54s-.54.24-.54.54v.16h-.16c-.3,0-.54.24-.54.54s.24.54.54.54h.16v.16c0,.3.24.54.54.54s.54-.24.54-.54v-.16Z"/>
</svg>