<?xml version="1.0" encoding="UTF-8"?>
<svg id="Layer_1" data-name="Layer 1" xmlns="http://www.w3.org/2000/svg" viewBox="0 0 24 24">
  <defs>
    <style>
      .cls-1 {
        fill: #1e1e1e;
      }
    </style>
  </defs>
  <path class="cls-1" d="M3.87,21.71h16.25l-.56-2.26c-.29-1.18-1.2-2.11-2.38-2.42l-2.73-.74-.32-1.01.07-.06c.71-.64,1.3-1.57,1.58-2.5v-.05s.05-.03.05-.03c1.05-.77,1.68-2.02,1.68-3.32,0-1.19-.44-2.35-1.23-3.25l-.07-.08.06-.09c.37-.59.44-1.42.17-2.07-.23-.64-.75-1.14-1.44-1.38-.69-.24-1.42-.17-2,.2l-1.01.6-1.01-.6c-.58-.36-1.3-.44-2-.2-.69.24-1.21.74-1.44,1.38-.26.68-.2,1.46.17,2.09l.06.09-.07.08c-.79.9-1.23,2.05-1.23,3.24,0,1.31.63,2.55,1.68,3.32l.04.03v.05c.32.97.86,1.83,1.6,2.5l.07.06-.32,1.01-.08.02-2.65.71c-1.17.32-2.08,1.24-2.38,2.42l-.56,2.26ZM15.28,17.4l1.68.45c.87.23,1.55.93,1.77,1.8l.3,1.2h-1.96v-1.26h-.86v1.26h-2.87l-.74-.74,2.68-2.71ZM16.66,9.31c0,.5-.12,1.01-.34,1.46l-.25.5-.03-.56c-.08-1.33-.93-2.61-2.13-3.2l-.35-.17,1.33-.38c.22-.06.44-.16.63-.29l.11-.07.08.1c.61.73.95,1.66.95,2.61ZM8.35,4.12c.15-.4.49-.73.93-.88.44-.15.91-.11,1.28.13l.61.36-2.29,1.37c-.1.06-.2.13-.3.19l-.16.11-.07-.18c-.14-.36-.14-.75,0-1.1ZM7.96,10.72l-.03.56-.25-.5c-.22-.45-.34-.96-.34-1.46,0-1.42.76-2.75,1.97-3.48l4.14-2.47c.35-.23.82-.27,1.27-.13.45.15.79.47.94.89.15.37.13.83-.07,1.23-.2.4-.54.68-.94.78l-3.86,1.1c-1.54.41-2.73,1.87-2.82,3.47ZM8.81,11h0c0-1.35.91-2.56,2.21-2.93l.98-.28.98.28c1.3.37,2.21,1.58,2.21,2.93.01,1.22-.51,2.54-1.33,3.36-.54.55-1.18.83-1.84.83h-.02c-2.16-.05-3.18-2.53-3.19-4.19ZM10.22,16.99l.39-1.24.15.06c.79.31,1.69.31,2.48,0l.15-.06.39,1.24.55.15-2.34,2.36-2.35-2.36.58-.16ZM5.27,19.65c.22-.88.9-1.57,1.77-1.8l1.65-.44.06.06,3.38,3.38h-4.34v-1.26h-.86v1.26h-1.96l.3-1.2Z"/>
</svg>