<?xml version="1.0" encoding="UTF-8"?>
<svg id="Layer_1" data-name="Layer 1" xmlns="http://www.w3.org/2000/svg" viewBox="0 0 24 24">
  <path d="M21.54,3.38c-3.1-1.01-6.33-1.52-9.61-1.52s-6.5.51-9.61,1.52l-.46.15v7.44c0,3.08.96,6.02,2.78,8.5.88,1.19,1.93,2.24,3.12,3.11,1.21.88,2.54,1.57,3.96,2.03l.21.07.21-.07c1.42-.47,2.75-1.15,3.96-2.03,1.19-.87,2.24-1.92,3.12-3.11,1.82-2.48,2.78-5.41,2.78-8.5V3.53l-.46-.15ZM20.66,10.97c0,5.56-3.5,10.47-8.73,12.3-5.23-1.82-8.73-6.74-8.73-12.3v-6.46c2.83-.87,5.76-1.31,8.73-1.31s5.9.44,8.73,1.31v6.46Z"/>
  <path d="M5.04,5.38l-.51.13v5.46c0,2.51.78,4.9,2.26,6.91,1.25,1.71,2.94,3.04,4.87,3.85l.26.11.26-.11c1.93-.81,3.62-2.15,4.87-3.85,1.48-2.01,2.26-4.4,2.26-6.91v-5.46l-.51-.13c-2.25-.56-4.56-.84-6.89-.84s-4.64.28-6.89.84ZM7.88,17.09c-1.18-1.61-1.86-3.49-1.98-5.47h5.37v8.43c-1.32-.72-2.48-1.73-3.39-2.97ZM15.99,17.09c-.91,1.23-2.06,2.24-3.39,2.97v-8.43h5.37c-.12,1.98-.8,3.86-1.98,5.47ZM17.99,10.28H5.87v-3.73c1.98-.45,4.02-.68,6.06-.68s4.08.23,6.06.68v3.73Z"/>
  <rect x="10.82" y="2.22" width="1.78" height=".36"/>
</svg>