<?xml version="1.0" encoding="UTF-8"?>
<svg id="Layer_1" data-name="Layer 1" xmlns="http://www.w3.org/2000/svg" viewBox="0 0 24 24">
  <defs>
    <style>
      .cls-1 {
        stroke: #000;
        stroke-miterlimit: 10;
        stroke-width: .25px;
      }
    </style>
  </defs>
  <path d="M19.75,10.8s0,0,0,0c0,0,0,0,0,0,0-1.35-1.09-2.45-2.45-2.45s-2.33.99-2.44,2.22h-3.96l-.83-2.08c-.03-.09-.12-.14-.21-.14h-2.12c-.13,0-.23.1-.23.23s.1.23.23.23h1.97l.7,1.77h-3.02c-.09,0-.16.05-.2.13-.04.08-.03.17.02.24l3.48,4.62c.39.51.66,1.09.83,1.72,0,0,0,0,0,0,0,0,0,0,0,0,.1.39.15.8.15,1.21v1.94c0,.86-.5,1.66-1.27,2.04l-1.28.62c-.1.05-.15.15-.12.26.02.1.12.18.22.18h6.28c.11,0,.2-.07.22-.18.02-.1-.03-.21-.12-.26l-1.28-.62c-.77-.38-1.27-1.17-1.27-2.04v-1.94c0-.41.05-.82.15-1.21,0,0,0,0,0,0,.16-.62.44-1.2.83-1.72l2.01-2.67c.38.24.82.36,1.28.36,0,0,0,0,0,0,0,0,0,0,.01,0,1.34,0,2.44-1.09,2.44-2.45ZM19.28,10.57h-1.44l1.01-1.01c.23.29.38.64.42,1.01ZM17.52,10.25v-1.44c.37.04.72.19,1.02.42l-1.02,1.02ZM17.07,10.25l-1.02-1.02c.29-.23.64-.38,1.02-.42v1.44ZM17.52,11.35l1.02,1.02c-.29.23-.64.38-1.02.42v-1.44ZM17.84,11.02h1.44c-.04.37-.19.72-.42,1.02l-1.02-1.02ZM15.73,9.56l1.01,1.01h-1.44c.04-.37.19-.72.42-1.01ZM16.84,11.02l-.74.98c-1.86.4-3.01.21-4.01.03-.22-.04-.44-.08-.66-.11l-.36-.9h5.76ZM10.59,11.02l.33.84c-.65-.05-1.35,0-2.24.28l-.84-1.12h2.75ZM14.1,22.86l.4.19h-4.31l.4-.19c.93-.45,1.53-1.41,1.53-2.44v-1.94c0-.35-.03-.7-.1-1.04h.66c-.07.34-.1.69-.1,1.04v1.94c0,1.03.6,1.99,1.53,2.44ZM12.78,16.98h-.88c-.43-1.47-1.17-2-2.93-4.46,2.49-.72,3.42.59,6.72.02-1.74,2.43-2.48,2.97-2.91,4.44ZM17.07,11.48v1.3c-.28-.03-.54-.12-.78-.26l.78-1.04Z"/>
  <g>
    <path class="cls-1" d="M10.79,5.75c.08,0,.14-.06.14-.14s-.06-.14-.14-.14h-.56c-.54,0-.98-.44-.98-.98s.44-.98.98-.98c.08,0,.17.01.25.03.04.01.09,0,.12-.03s.05-.07.05-.11v-.04c0-1,.82-1.82,1.82-1.82.73,0,1.39.44,1.67,1.1v.03s.05.06.08.08.07.02.11,0c.16-.06.34-.1.51-.1.77,0,1.4.63,1.4,1.4,0,.08.06.14.14.14s.14-.06.14-.14c0-.93-.75-1.68-1.68-1.68-.17,0-.33.03-.49.07-.35-.73-1.08-1.19-1.89-1.19-1.11,0-2.03.87-2.1,1.97-.05,0-.1,0-.14,0-.69,0-1.26.57-1.26,1.26s.57,1.26,1.26,1.26h.56Z"/>
    <path class="cls-1" d="M15.36,4.26c-.1,0-.2.01-.3.04-.25-.48-.74-.79-1.29-.79-.74,0-1.36.57-1.44,1.31-.51-.03-.94.38-.94.88s.4.89.89.89h3.08c.64,0,1.17-.52,1.17-1.17s-.52-1.17-1.17-1.17h0ZM15.36,6.31h-3.08c-.34,0-.61-.27-.61-.61s.27-.61.61-.61c.05,0,.1,0,.15.02.04.01.09-.01.12-.04.03-.03.05-.08.05-.12,0-.64.52-1.17,1.17-1.17.47,0,.89.28,1.08.72.01.04.04.06.07.08s.07.02.11,0c.1-.04.21-.06.32-.06.49,0,.89.4.89.89s-.4.89-.89.89h0Z"/>
  </g>
</svg>