<?xml version="1.0" encoding="UTF-8"?>
<svg id="Layer_1" data-name="Layer 1" xmlns="http://www.w3.org/2000/svg" viewBox="0 0 24 24">
  <defs>
    <style>
      .cls-1 {
        stroke: #000;
        stroke-miterlimit: 10;
        stroke-width: .25px;
      }

      .cls-2 {
        fill: #1e1e1e;
      }
    </style>
  </defs>
  <g>
    <path class="cls-2" d="M21.24,21.99H3.61c-.18,0-.33-.15-.33-.33s.15-.33.33-.33h17.63c.18,0,.33.15.33.33s-.15.33-.33.33Z"/>
    <path class="cls-2" d="M7.66,17.05s-.03,0-.04,0c-2.68-.33-4.71-2.62-4.71-5.33,0-2.96,2.41-5.37,5.37-5.37s5.37,2.41,5.37,5.37c0,2.38-1.59,4.5-3.88,5.16-.18.05-.36-.05-.41-.23-.05-.18.05-.36.23-.41,2-.58,3.4-2.44,3.4-4.52,0-2.6-2.11-4.71-4.71-4.71s-4.71,2.11-4.71,4.71c0,2.38,1.78,4.39,4.13,4.67.18.02.31.19.29.37-.02.17-.16.29-.33.29Z"/>
    <path class="cls-2" d="M6.36,21.99c-.1,0-.19-.04-.26-.12-.12-.14-.09-.35.05-.46,2.85-2.32.05-8.64.02-8.7-.08-.17,0-.36.16-.44.16-.07.36,0,.44.16.13.28,3.04,6.85-.21,9.48-.06.05-.13.07-.21.07Z"/>
    <path class="cls-2" d="M10.95,21.99c-.08,0-.16-.03-.22-.09-3.07-2.82-.41-9.09-.3-9.35.07-.17.27-.25.43-.17.17.07.25.27.17.43-.03.06-2.59,6.1.14,8.6.13.12.14.33.02.47-.06.07-.15.11-.24.11Z"/>
    <path class="cls-2" d="M8.65,14.01c-.13,0-.24-.07-.3-.19l-.89-1.84c-.08-.16-.01-.36.15-.44.16-.08.36-.01.44.15l.55,1.13.39-1.1c.06-.17.25-.26.42-.2.17.06.26.25.2.42l-.65,1.84c-.04.13-.16.21-.29.22h-.02Z"/>
    <path class="cls-2" d="M15.65,18.29s-.03,0-.04,0c-1.88-.23-3.35-1.7-3.57-3.59-.02-.18.11-.35.29-.37.19-.03.34.11.37.29.18,1.58,1.42,2.82,2.99,3.01.18.02.31.19.29.37-.02.17-.16.29-.33.29Z"/>
    <path class="cls-2" d="M17.17,18.17c-.14,0-.28-.09-.32-.24-.05-.18.05-.36.23-.41,1.46-.42,2.49-1.78,2.49-3.31,0-1.9-1.54-3.45-3.44-3.45-.97,0-1.91.42-2.56,1.14-.12.14-.33.15-.47.03-.14-.12-.15-.33-.03-.47.78-.86,1.89-1.36,3.05-1.36,2.26,0,4.1,1.84,4.1,4.11,0,1.82-1.22,3.44-2.96,3.95-.03,0-.06.01-.09.01Z"/>
    <path class="cls-2" d="M14.68,21.99c-.1,0-.19-.04-.26-.12-.12-.14-.09-.35.05-.46,2.09-1.7.01-6.37,0-6.42-.08-.17,0-.36.16-.44.16-.07.36,0,.44.16.09.21,2.3,5.19-.18,7.2-.06.05-.13.07-.21.07Z"/>
    <path class="cls-2" d="M18.12,21.99c-.08,0-.16-.03-.22-.09-2.34-2.15-.33-6.9-.24-7.1.07-.17.27-.25.43-.17.17.07.24.27.17.43-.02.04-1.91,4.52.08,6.35.13.12.14.33.02.47-.06.07-.15.11-.24.11Z"/>
    <path class="cls-2" d="M16.4,16.01c-.13,0-.24-.07-.3-.19l-.67-1.38c-.08-.16-.01-.36.15-.44.17-.08.36-.01.44.15l.32.67.22-.63c.06-.17.25-.26.42-.2.17.06.26.25.2.42l-.49,1.38c-.04.13-.16.21-.29.22h-.02Z"/>
    <path class="cls-2" d="M16.51,10.79s-.02,0-.02,0c-.18-.01-.32-.17-.3-.35,0-.06.09-1.61-1.47-2.35-1.41-.67-2.81.21-2.82.22-.15.1-.36.05-.46-.1-.1-.15-.05-.36.1-.46.07-.04,1.72-1.09,3.46-.26,1.98.94,1.85,2.91,1.84,3-.01.17-.16.3-.33.3Z"/>
    <path class="cls-2" d="M21.24,13.81c-.18,0-.33-.14-.33-.32-.03-1.33-.79-1.81-.82-1.82-.16-.09-.21-.3-.12-.45.09-.16.29-.21.45-.12.05.03,1.11.66,1.15,2.38,0,.18-.14.33-.32.34h0Z"/>
    <path class="cls-2" d="M10.54,21.55c-.06,0-.12-.02-.17-.05-.16-.09-.21-.3-.11-.45,1.44-2.37,1.13-5.57,1.12-5.6-.02-.18.11-.34.29-.36.18-.03.34.11.36.29.01.14.34,3.44-1.22,6.01-.06.1-.17.16-.28.16Z"/>
    <path class="cls-2" d="M13.55,21.99c-.09,0-.18-.04-.25-.11-1.27-1.47-.67-5.45-.65-5.62.03-.18.2-.3.38-.28.18.03.3.2.28.38-.16,1.06-.39,4.06.49,5.09.12.14.1.35-.04.47-.06.05-.14.08-.22.08Z"/>
    <path class="cls-2" d="M4.38,16.86s-.1,0-.14-.03c-1.25-.59-1.76-2-1.78-2.06-.06-.17.03-.36.2-.42.17-.06.36.03.42.2,0,.01.45,1.21,1.44,1.68.16.08.24.27.16.44-.06.12-.18.19-.3.19Z"/>
  </g>
  <path class="cls-1" d="M15.83,6.49c.08,0,.14-.06.14-.14s-.06-.14-.14-.14h-.56c-.54,0-.98-.44-.98-.98s.44-.98.98-.98c.08,0,.17.01.25.03.04.01.09,0,.12-.03s.05-.07.05-.11v-.04c0-1,.82-1.82,1.82-1.82.73,0,1.39.44,1.67,1.1v.03s.05.06.08.08.07.02.11,0c.16-.06.34-.1.51-.1.77,0,1.4.63,1.4,1.4,0,.08.06.14.14.14s.14-.06.14-.14c0-.93-.75-1.68-1.68-1.68-.17,0-.33.03-.49.07-.35-.73-1.08-1.19-1.89-1.19-1.11,0-2.03.87-2.1,1.97-.05,0-.1,0-.14,0-.69,0-1.26.57-1.26,1.26s.57,1.26,1.26,1.26h.56Z"/>
  <path class="cls-1" d="M20.4,5c-.1,0-.2.01-.3.04-.25-.48-.74-.79-1.29-.79-.74,0-1.36.57-1.44,1.31-.51-.03-.94.38-.94.88s.4.89.89.89h3.08c.64,0,1.17-.52,1.17-1.17s-.52-1.17-1.17-1.17h0ZM20.4,7.05h-3.08c-.34,0-.61-.27-.61-.61s.27-.61.61-.61c.05,0,.1,0,.15.02.04.01.09-.01.12-.04.03-.03.05-.08.05-.12,0-.64.52-1.17,1.17-1.17.47,0,.89.28,1.08.72.01.04.04.06.07.08s.07.02.11,0c.1-.04.21-.06.32-.06.49,0,.89.4.89.89s-.4.89-.89.89h0Z"/>
</svg>