<?xml version="1.0" encoding="UTF-8"?>
<svg id="Layer_1" data-name="Layer 1" xmlns="http://www.w3.org/2000/svg" viewBox="0 0 24 24">
  <defs>
    <style>
      .cls-1 {
        stroke: #000;
        stroke-miterlimit: 10;
        stroke-width: .25px;
      }

      .cls-2 {
        fill: #1e1e1e;
      }
    </style>
  </defs>
  <g>
    <path class="cls-2" d="M19.17,20.99c-3.53,1.18-5.4.7-7.38.2-1.87-.47-3.81-.96-7.17-.21-.21.05-.34.25-.29.46.05.21.25.34.46.29,3.18-.71,5.03-.24,6.81.21,1.13.28,2.22.56,3.57.56,1.16,0,2.51-.2,4.24-.78.2-.07.31-.28.24-.49-.07-.2-.28-.31-.49-.24Z"/>
    <path class="cls-2" d="M4.79,19.43c3.18-.71,5.03-.24,6.81.21,1.13.28,2.22.56,3.57.56,1.16,0,2.51-.2,4.24-.78.2-.07.31-.28.24-.49s-.28-.31-.49-.24c-1.68.56-2.98.74-4.1.73v-9.19c0-.42.34-.77.77-.77s.77.34.77.77c0,.21.17.38.38.38s.38-.17.38-.38c0-.85-.69-1.54-1.54-1.54s-1.54.69-1.54,1.54v1.54h-5.37v-1.54c0-.42.34-.77.77-.77s.77.34.77.77c0,.21.17.38.38.38s.38-.17.38-.38c0-.85-.69-1.54-1.54-1.54s-1.54.69-1.54,1.54v8.08c-1-.03-2.14.06-3.54.37-.21.05-.34.25-.29.46.05.21.25.34.46.29ZM8.93,14.83h5.37v1.54h-5.37v-1.54ZM14.3,12.53v1.54h-5.37v-1.54h5.37ZM8.93,17.13h5.37v2.24c-.9-.08-1.7-.28-2.51-.48-.89-.22-1.8-.45-2.86-.55v-1.21Z"/>
  </g>
  <g>
    <path class="cls-1" d="M11.92,5.98c.08,0,.14-.06.14-.14s-.06-.14-.14-.14h-.56c-.54,0-.98-.44-.98-.98s.44-.98.98-.98c.08,0,.17.01.25.03.04.01.09,0,.12-.03s.05-.07.05-.11v-.04c0-1,.82-1.82,1.82-1.82.73,0,1.39.44,1.67,1.1v.03s.05.06.08.08.07.02.11,0c.16-.06.34-.1.51-.1.77,0,1.4.63,1.4,1.4,0,.08.06.14.14.14s.14-.06.14-.14c0-.93-.75-1.68-1.68-1.68-.17,0-.33.03-.49.07-.35-.73-1.08-1.19-1.89-1.19-1.11,0-2.03.87-2.1,1.97-.05,0-.1,0-.14,0-.69,0-1.26.57-1.26,1.26s.57,1.26,1.26,1.26h.56Z"/>
    <path class="cls-1" d="M16.49,4.49c-.1,0-.2.01-.3.04-.25-.48-.74-.79-1.29-.79-.74,0-1.36.57-1.44,1.31-.51-.03-.94.38-.94.88s.4.89.89.89h3.08c.64,0,1.17-.52,1.17-1.17s-.52-1.17-1.17-1.17h0ZM16.49,6.54h-3.08c-.34,0-.61-.27-.61-.61s.27-.61.61-.61c.05,0,.1,0,.15.02.04.01.09-.01.12-.04.03-.03.05-.08.05-.12,0-.64.52-1.17,1.17-1.17.47,0,.89.28,1.08.72.01.04.04.06.07.08s.07.02.11,0c.1-.04.21-.06.32-.06.49,0,.89.4.89.89s-.4.89-.89.89h0Z"/>
  </g>
</svg>