<?xml version="1.0" encoding="UTF-8"?>
<svg id="Layer_1" data-name="Layer 1" xmlns="http://www.w3.org/2000/svg" viewBox="0 0 24 24">
  <path d="M18.81,15.26s.08-.08.11-.12c2.51-2.7,2.26-6.47,2.25-6.63l-.03-.46-.46-.03c-.09,0-1.25-.08-2.72.26-.25-1.49-.76-2.53-.8-2.61l-.21-.42-.44.15c-.08.03-1.18.4-2.41,1.28-.8-1.28-1.68-2.05-1.74-2.1l-.35-.3-.35.3c-.07.06-.94.82-1.74,2.1-1.23-.88-2.33-1.25-2.41-1.28l-.44-.15-.21.42c-.04.08-.55,1.12-.8,2.61-1.47-.34-2.63-.26-2.72-.26l-.46.03-.03.46c-.01.16-.26,3.93,2.25,6.63.04.04.08.08.11.12-1.25.63-2.02,1.5-2.06,1.56l-.3.35.3.35c.07.09,1.85,2.11,4.47,2.2.06,0,.13,0,.19,0,1.46,0,2.88-.61,4.21-1.82,1.34,1.21,2.75,1.82,4.21,1.82.06,0,.13,0,.19,0,2.62-.1,4.4-2.12,4.47-2.2l.3-.35-.3-.35c-.05-.06-.81-.93-2.06-1.56h0ZM17.61,12.65c.42-1.14.53-2.28.47-3.29.83-.2,1.57-.26,2.02-.27-.03,1.04-.28,3.51-1.98,5.33-.89.95-2.05,1.6-3.47,1.95,1.42-1.01,2.41-2.25,2.96-3.71ZM16.39,6.6c.37.97,1.08,3.34.22,5.67-.45,1.22-1.28,2.27-2.47,3.14.93-1.47,1.37-3,1.31-4.56-.04-1.22-.39-2.31-.83-3.22.69-.51,1.35-.84,1.77-1.02ZM9.63,10.9c.09-2.48,1.66-4.41,2.37-5.17.72.75,2.28,2.67,2.37,5.16.06,1.7-.57,3.37-1.89,4.98,0,0,0-.01,0-.02,0,0,0,.02,0,.03-.15.18-.3.36-.47.54-.16-.18-.32-.36-.47-.54,0,0,0-.02,0-.03,0,0,0,.01,0,.02-1.32-1.61-1.95-3.28-1.89-4.97h0ZM7.61,6.6c.42.19,1.07.52,1.77,1.02-.44.91-.78,2-.83,3.22-.06,1.56.38,3.09,1.31,4.56-1.18-.86-2.01-1.91-2.47-3.13-.87-2.33-.16-4.71.21-5.68h0ZM3.89,9.09c.46.01,1.19.07,2.02.27-.06,1.01.04,2.15.47,3.29.55,1.47,1.54,2.71,2.96,3.71-1.43-.35-2.59-1-3.48-1.95-1.69-1.82-1.95-4.29-1.98-5.33h0ZM7.64,18.65c-1.54-.05-2.77-.96-3.35-1.48.36-.33.99-.81,1.78-1.13,1.21.9,2.73,1.44,4.52,1.62-.96.69-1.95,1.02-2.96.99ZM16.36,18.65c-1,.03-1.99-.3-2.96-.99,1.8-.18,3.31-.72,4.52-1.62.8.32,1.42.81,1.78,1.13-.58.52-1.81,1.43-3.35,1.48h0Z"/>
</svg>