<?xml version="1.0" encoding="UTF-8"?>
<svg id="Layer_1" data-name="Layer 1" xmlns="http://www.w3.org/2000/svg" viewBox="0 0 24 24">
  <defs>
    <style>
      .cls-1 {
        fill: #1e1e1e;
      }
    </style>
  </defs>
  <path class="cls-1" d="M21.66,19.16c-4.39,1.46-6.72.88-9.19.25-2.33-.59-4.74-1.2-8.92-.27-.26.06-.42.31-.36.57.06.26.31.42.57.36,3.97-.88,6.26-.3,8.48.26,1.4.35,2.76.7,4.44.7,1.44,0,3.13-.25,5.28-.97.25-.08.39-.35.3-.6-.08-.25-.35-.39-.6-.3Z"/>
  <path class="cls-1" d="M3.76,17.21c3.97-.88,6.26-.3,8.48.26,1.4.35,2.76.7,4.44.7,1.44,0,3.13-.25,5.28-.97.25-.08.39-.35.3-.6s-.35-.39-.6-.3c-2.09.7-3.71.92-5.11.91V5.76c0-.53.43-.96.96-.96s.96.43.96.96c0,.26.21.48.48.48s.48-.21.48-.48c0-1.05-.86-1.91-1.91-1.91s-1.91.86-1.91,1.91v1.91h-6.69v-1.91c0-.53.43-.96.96-.96s.96.43.96.96c0,.26.21.48.48.48s.48-.21.48-.48c0-1.05-.86-1.91-1.91-1.91s-1.91.86-1.91,1.91v10.06c-1.25-.03-2.67.08-4.4.46-.26.06-.42.31-.36.57.06.26.31.42.57.36ZM8.91,11.49h6.69v1.91h-6.69v-1.91ZM15.6,8.62v1.91h-6.69v-1.91h6.69ZM8.91,14.36h6.69v2.79c-1.12-.1-2.11-.35-3.13-.6-1.11-.28-2.24-.56-3.56-.68v-1.51Z"/>
</svg>