<?xml version="1.0" encoding="UTF-8"?>
<svg id="Layer_1" data-name="Layer 1" xmlns="http://www.w3.org/2000/svg" viewBox="0 0 24 24">
  <path d="M18.76,5.24c-1.8-1.8-4.2-2.8-6.76-2.8s-4.95.99-6.76,2.8c-1.8,1.8-2.8,4.2-2.8,6.76s.99,4.95,2.8,6.76c1.8,1.8,4.2,2.8,6.76,2.8s4.95-.99,6.76-2.8c1.8-1.8,2.8-4.2,2.8-6.76s-.99-4.95-2.8-6.76h0ZM20.44,12c0,2.06-.73,4.01-2.08,5.54-1.35-1.54-2.09-3.49-2.09-5.55s.73-4.01,2.08-5.54c1.35,1.54,2.09,3.49,2.09,5.55ZM3.56,12c0-2.06.73-4.01,2.08-5.55,1.35,1.54,2.09,3.49,2.09,5.55,0,2.06-.74,4-2.09,5.54-1.34-1.54-2.08-3.48-2.08-5.55ZM6.43,18.34c1.56-1.74,2.41-3.97,2.41-6.33,0-2.37-.85-4.6-2.41-6.35,1.54-1.36,3.5-2.1,5.57-2.1s4.02.74,5.56,2.09c-1.55,1.75-2.4,3.98-2.4,6.34s.85,4.6,2.41,6.35c-1.54,1.36-3.5,2.1-5.57,2.1s-4.03-.74-5.57-2.1h0Z"/>
</svg>