<?xml version="1.0" encoding="UTF-8"?>
<svg id="Layer_1" data-name="Layer 1" xmlns="http://www.w3.org/2000/svg" viewBox="0 0 24 24">
  <defs>
    <style>
      .cls-1 {
        fill: #231f20;
      }
    </style>
  </defs>
  <g id="_2" data-name="2">
    <polygon class="cls-1" points="4.23 17.13 3.57 17.12 3.64 5.14 21 5.25 20.92 15.82 20.26 15.81 20.33 5.91 4.3 5.81 4.23 17.13"/>
    <path class="cls-1" d="M20.29,18.86H4.27c-1.24,0-2.36-.78-2.78-1.95l-.16-.44h8.72l.57.5h3.31l.57-.5h8.73l-.16.44c-.42,1.17-1.54,1.95-2.78,1.95ZM2.33,17.12c.41.66,1.14,1.07,1.94,1.07h16.02c.8,0,1.52-.42,1.94-1.07h-7.48l-.57.5h-3.8l-.57-.5H2.33Z"/>
  </g>
</svg>