<?xml version="1.0" encoding="UTF-8"?>
<svg id="Layer_1" data-name="Layer 1" xmlns="http://www.w3.org/2000/svg" viewBox="0 0 24 24">
  <path d="M17.67,14.61v-2.71l-3.06-7.44c-.23-.57-.78-.93-1.39-.93-.45,0-.87.2-1.16.54-.02.02-.04.05-.06.07-.02-.02-.04-.05-.06-.07-.29-.35-.71-.54-1.16-.54-.61,0-1.16.37-1.39.93l-3.06,7.44v2.71h-2.8v5.85h5.88c1.08,0,2.03-.56,2.58-1.4.55.84,1.5,1.4,2.58,1.4h0s5.88,0,5.88,0v-5.85h-2.8ZM4.53,19.47v-3.87h1.81v1.78c0,.81.31,1.54.82,2.09h-2.63ZM9.42,19.47c-1.15,0-2.09-.94-2.09-2.09v-5.29l2.99-7.26c.08-.19.26-.32.47-.32s.34.12.39.19.15.22.11.42l-1.04,5.5c-.21.08-.4.21-.56.37-.32.31-.49.73-.49,1.17v3.36h.99v-3.36c0-.18.07-.34.2-.47.12-.12.29-.19.47-.19h0c.34,0,.62.26.65.59,0,.02,0,5.35,0,5.38-.06,1.1-.97,1.98-2.09,1.98h0ZM12,11c-.2-.2-.45-.34-.73-.42l.73-3.87.73,3.87c-.28.07-.53.22-.73.42ZM16.68,17.38c0,1.15-.94,2.09-2.09,2.09s-2.03-.88-2.09-1.98c0-.04,0-5.36,0-5.38.03-.33.31-.59.65-.59h0c.18,0,.34.07.47.19.13.13.2.29.2.47v3.36h.99v-3.36c0-.44-.17-.86-.49-1.17-.16-.16-.36-.29-.56-.37l-1.04-5.5c-.04-.21.05-.35.11-.42.06-.07.18-.18.39-.18s.39.12.47.32l2.99,7.26v5.29ZM19.47,19.47h-2.62c.51-.55.82-1.28.82-2.09v-1.78h1.81v3.87Z"/>
</svg>