<?xml version="1.0" encoding="UTF-8"?>
<svg id="Layer_1" data-name="Layer 1" xmlns="http://www.w3.org/2000/svg" viewBox="0 0 24 24">
  <path d="M17.97,15.43c-.81,0-1.19-.16-1.63-.34-.48-.2-1.03-.42-2.06-.42s-1.58.22-2.06.42c-.44.18-.82.34-1.63.34-.06,0-.12,0-.18,0-.06-.04-.11-.07-.17-.11l-.46-5.57h1.09c1.57,0,2.84-1.27,2.84-2.84v-.57h-1.88l1.93-3.41h-.97c-1.75,0-3.39.78-4.48,2.15l-.28.35-.28-.35c-1.05-1.31-2.7-2.15-4.4-2.15h-.96l1.85,3.41h-1.9v.57c0,1.57,1.27,2.84,2.84,2.84h1.09l-.31,3.76c-1.88-.43-3.27-.33-3.62-.35v9.09h13.36c-.33-.77-.45-1.09-.74-1.66.38.06.65.17.94.29.48.2,1.03.42,2.06.42s1.58-.22,2.06-.42c.44-.18.82-.34,1.63-.34v-1.14c-1.04,0-1.58.22-2.06.42-.44.18-.82.34-1.63.34s-1.19-.16-1.63-.34c-.48-.2-1.02-.42-2.04-.42-.28-.43-.57-.85-.89-1.24.23-.05.51-.08.87-.08.81,0,1.19.16,1.63.34.48.2,1.03.42,2.06.42s1.58-.22,2.06-.42c.44-.18.82-.34,1.63-.34v-1.14c-1.04,0-1.58.22-2.06.42-.44.18-.82.34-1.63.34s-1.19-.16-1.63-.34c-.48-.2-1.03-.42-2.06-.42-.79,0-1.3.13-1.7.28-.26-.27-.54-.53-.83-.78,1.01-.23,1.23-.64,2.53-.64.81,0,1.19.16,1.63.34.48.2,1.03.42,2.06.42s1.58-.22,2.06-.42c.44-.18.82-.34,1.63-.34v-1.14c-1.04,0-1.58.22-2.06.42-.44.18-.82.34-1.63.34h0ZM5.18,8.61c-.74,0-1.37-.48-1.61-1.14h2.81c-.72-.94-.73-.94-.79-1.04l-1.22-2.25c.3.07.59.18.89.33.62.3,1.17.74,1.6,1.27l1.16,1.46,1.16-1.46c.66-.82,1.55-1.38,2.55-1.61l-1.28,2.25c-.07.1-.07.1-.8,1.04h2.81c-.23.66-.87,1.14-1.61,1.14h-5.68ZM7.41,9.74h1.23l.4,4.88c-.63-.32-1.29-.59-1.97-.81l.34-4.07ZM3.48,21.11v-6.81c4.48.2,8.48,2.81,10.48,6.81H3.48Z"/>
  <path d="M19.39,7.47c1.25,0,2.27-1.02,2.27-2.27s-1.02-2.27-2.27-2.27-2.27,1.02-2.27,2.27,1.02,2.27,2.27,2.27ZM19.39,4.06c.63,0,1.14.51,1.14,1.14s-.51,1.14-1.14,1.14-1.14-.51-1.14-1.14.51-1.14,1.14-1.14Z"/>
  <path d="M4.61,15.99h1.14v1.14h-1.14v-1.14Z"/>
  <path d="M5.75,18.84h1.14v1.14h-1.14v-1.14Z"/>
  <path d="M8.02,17.7h1.14v1.14h-1.14v-1.14Z"/>
</svg>