<?xml version="1.0" encoding="UTF-8"?>
<svg id="Layer_1" data-name="Layer 1" xmlns="http://www.w3.org/2000/svg" viewBox="0 0 24 24">
  <path d="M15.36,15.67h-6.73c-.34,0-.61.27-.61.61s.27.61.61.61h6.73c.34,0,.61-.27.61-.61s-.27-.61-.61-.61Z"/>
  <path d="M22.39,12.31c0-.34-.27-.61-.61-.61h-3.37v-2.76h.61c.34,0,.61-.27.61-.61s-.27-.61-.61-.61h-2.75v-3.06c0-.34-.27-.61-.61-.61h-1.84v-.61c0-1.01-.82-1.83-1.83-1.83s-1.83.82-1.83,1.83v.61h-1.84c-.34,0-.61.27-.61.61v3.06h-2.75c-.34,0-.61.27-.61.61s.27.61.61.61h.61v2.76h-3.37c-.34,0-.61.27-.61.61v9.48c0,.34.27.61.61.61,6.13,0,13.45,0,19.56,0,.34,0,.61-.27.61-.61,0-1.53,0-9.47,0-9.48ZM2.83,16.28h2.76v1.84h-2.76v-1.84ZM17.2,13.23H6.8v-1.84h10.4v1.84ZM14.75,19.33v1.84h-2.14v-1.84h2.14ZM11.39,21.17h-2.14v-1.84h2.14v1.84ZM15.97,21.17v-2.45c0-.34-.27-.61-.61-.61h-6.73c-.34,0-.61.27-.61.61v2.45h-1.23v-6.73h10.4v6.73h-1.23ZM18.42,16.28h2.76v1.84h-2.76v-1.84ZM21.17,12.91v2.14h-2.76v-2.14h2.76ZM11.39,3.44c0-.34.28-.61.61-.61s.61.28.61.61v.61h-1.23v-.61ZM10.78,6.49c.34,0,.61-.27.61-.61v-.61h1.23v.61c0,.34.27.61.61.61s.61-.27.61-.61v-.61h1.23v2.45h-6.12v-2.45h1.23v.61c0,.34.27.61.61.61ZM17.2,8.94v1.23H6.8v-1.23h10.4ZM5.58,12.91v2.14h-2.76v-2.14h2.76ZM2.83,19.33h2.76v1.84h-2.76v-1.84ZM18.42,21.17v-1.84h2.76v1.84h-2.76Z"/>
</svg>