<?xml version="1.0" encoding="UTF-8"?>
<svg id="Layer_1" data-name="Layer 1" xmlns="http://www.w3.org/2000/svg" viewBox="0 0 24 24">
  <path d="M12,9.66c-1.29,0-2.34,1.05-2.34,2.34s1.05,2.34,2.34,2.34,2.34-1.05,2.34-2.34-1.05-2.34-2.34-2.34h0ZM12,13.18c-.65,0-1.18-.53-1.18-1.18s.53-1.18,1.18-1.18,1.18.53,1.18,1.18-.53,1.18-1.18,1.18h0Z"/>
  <path d="M21.97,14.93s0,0,0,0v-2.35c0-.09-.02-.22-.1-.33l-1.76-2.64c-.11-.16-.29-.26-.49-.26h-2.78l-4.26-2.4v-1.42h2.35c.32,0,.58-.26.58-.58v-2.35c0-.32-.26-.58-.58-.58h-2.93c-.32,0-.58.26-.58.58v4.35l-4.26,2.4h-2.78c-.2,0-.38.1-.49.26l-1.76,2.64c-.05.08-.1.18-.1.33v2.35s0,0,0,0v2.93s0,0,0,0v3.52c0,.32.26.58.58.58h18.78c.32,0,.58-.26.58-.58v-3.52s0,0,0,0v-2.93ZM17.28,17.28v-1.76h1.18v1.76h-1.18ZM3.2,17.28v-1.76h1.18v1.76h-1.18ZM6.72,13.17v1.18h-3.53v-1.18h3.53ZM5.54,15.52h1.18v1.76h-1.18v-1.76ZM13.76,20.8h-3.53v-2.35c0-.97.79-1.76,1.76-1.76s1.76.79,1.76,1.76v2.35h0ZM14.93,20.8v-2.35c0-1.62-1.32-2.93-2.93-2.93s-2.93,1.32-2.93,2.93v2.35h-1.18v-10.52l4.11-2.31,4.11,2.31v10.52h-1.18ZM19.63,15.52h1.18v1.76h-1.18v-1.76h0ZM17.28,14.35v-1.18h3.53v1.18h-3.53ZM20.3,12h-3.02v-1.47h2.04l.98,1.47ZM14.35,4.37h-1.76v-1.18h1.76v1.18ZM4.69,10.53h2.04v1.47h-3.02l.98-1.47ZM3.2,18.45h3.52v2.35h-3.52v-2.35ZM17.28,20.8v-2.35h3.53v2.35h-3.53Z"/>
</svg>