<?xml version="1.0" encoding="UTF-8"?>
<svg id="Layer_1" data-name="Layer 1" xmlns="http://www.w3.org/2000/svg" viewBox="0 0 24 24">
  <path d="M20.13,11.13h-.19l-1.9-4.98c-.25-.67-.91-1.12-1.62-1.12H2.71c-.32,0-.58.26-.58.58v11.32c0,.32.26.58.58.58h1.83c.25.84,1.03,1.45,1.94,1.45s1.7-.61,1.94-1.45h6.85c.25.84,1.03,1.45,1.94,1.45s1.7-.61,1.94-1.45h.96c.96,0,1.73-.78,1.73-1.73v-2.91c0-.96-.78-1.73-1.73-1.73h0ZM12.87,16.35h-1.75v-4.07h1.75v4.07ZM3.29,11.13v-2.62h1.75v2.62h-1.75ZM6.19,11.13v-2.62h2.33v2.62h-2.33ZM9.68,8.52h2.33v2.62h-2.33v-2.62ZM13.16,11.13v-2.62h1.61l.8,2.62h-2.41ZM16.78,11.13l-.81-2.62h1.73l1,2.62h-1.93ZM16.43,6.19c.24,0,.46.15.54.37l.3.79H3.29v-1.17h13.13ZM3.29,12.29h6.68v4.07h-1.54c-.25-.84-1.03-1.45-1.94-1.45s-1.69.61-1.94,1.45h-1.25v-4.07ZM6.49,17.81c-.48,0-.87-.39-.87-.87s.39-.87.87-.87.87.39.87.87c0,.48-.39.87-.87.87ZM17.22,17.81c-.48,0-.87-.39-.87-.87s.39-.87.87-.87.87.39.87.87c0,.48-.39.87-.87.87ZM20.71,15.78c0,.32-.26.58-.58.58h-.96c-.25-.84-1.03-1.45-1.94-1.45s-1.69.61-1.94,1.45h-1.25v-4.07h6.1c.32,0,.58.26.58.58v2.91h0Z"/>
</svg>