<?xml version="1.0" encoding="UTF-8"?>
<svg id="Layer_1" data-name="Layer 1" xmlns="http://www.w3.org/2000/svg" xmlns:xlink="http://www.w3.org/1999/xlink" viewBox="0 0 24 24">
  <defs>
    <style>
      .cls-1 {
        fill: none;
      }

      .cls-2 {
        clip-path: url(#clippath);
      }
    </style>
    <clipPath id="clippath">
      <rect class="cls-1" x="5.28" y="2.46" width="13.43" height="19.07"/>
    </clipPath>
  </defs>
  <g class="cls-2">
    <path d="M18.72,16.46V5.35c0-.94-.6-1.77-1.5-2.07-3.37-1.13-7.04-1.13-10.41,0-.89.3-1.5,1.13-1.5,2.07v10.62c0,1.2.97,2.17,2.17,2.17h.44l-2.46,2.59.81.77.92-.97c.09-.1.22-.15.36-.15h8.91c.14,0,.27.06.36.15l.92.97.81-.77-2.46-2.59h.94c.92,0,1.68-.75,1.68-1.68h0ZM17.1,12.55H6.93c-.27,0-.5-.22-.5-.5v-3.55c0-.27.22-.5.5-.5h10.18c.27,0,.5.22.5.5v3.55c0,.27-.22.5-.5.5ZM6.8,4.46c1.68-.61,3.45-.92,5.22-.92,1.65,0,3.31.27,4.89.8.42.14.69.55.69.99v1.06c0,.27-.22.5-.5.5H6.93c-.27,0-.5-.22-.5-.5v-1.41c0-.23.15-.44.37-.52h0ZM15.62,19.25h-7.22l.91-.96c.09-.1.22-.15.36-.15h4.68c.14,0,.27.06.36.15l.91.96ZM7.48,17.02c-.58,0-1.05-.47-1.05-1.05v-1.8c0-.27.22-.5.5-.5h10.18c.27,0,.5.22.5.5v1.8c0,.58-.47,1.05-1.05,1.05H7.48ZM6.99,17.02"/>
  </g>
  <rect x="8.66" y="4.66" width="6.7" height="1.12"/>
  <rect x="14.25" y="14.79" width="2.23" height="1.12"/>
  <rect x="7.55" y="14.79" width="2.23" height="1.12"/>
</svg>