<?xml version="1.0" encoding="UTF-8"?>
<svg id="Layer_1" data-name="Layer 1" xmlns="http://www.w3.org/2000/svg" viewBox="0 0 24 24">
  <path d="M21.56,9.23h-6.74l3.9-3.9c.15-.15.24-.35.24-.57s-.08-.42-.24-.57c-.15-.15-.35-.24-.57-.24s-.42.08-.57.24l-4.47,4.47c-.13-.03-.26-.05-.39-.05s-.27.02-.39.05l-4.47-4.47c-.15-.15-.35-.24-.57-.24s-.42.08-.57.24c-.31.31-.31.82,0,1.14l3.9,3.9H3.88c-.17,0-.31.14-.31.31v1.73c0,.17.14.31.31.31h.49l1.06,7.61c.1.7.7,1.23,1.41,1.23h11.77c.71,0,1.31-.53,1.41-1.23l1.06-7.61h.49c.17,0,.31-.14.31-.31v-1.73c0-.17-.14-.31-.31-.31ZM18.02,4.63c.07-.07.2-.07.27,0,.07.07.07.19,0,.27l-4.28,4.28c-.09-.09-.18-.18-.29-.25l4.3-4.3ZM13.88,10.4c0,.64-.52,1.17-1.17,1.17s-1.17-.52-1.17-1.17.52-1.17,1.17-1.17,1.17.52,1.17,1.17ZM7.15,4.63c.07-.07.2-.07.27,0l4.3,4.3c-.11.07-.2.16-.29.25l-4.28-4.28c-.07-.07-.07-.19,0-.27ZM4.18,9.84h6.84c-.06.18-.09.36-.09.56s.03.38.09.56h-6.84v-1.12ZM19.41,19.1c-.06.4-.4.7-.8.7H6.83c-.4,0-.75-.3-.8-.7l-1.04-7.53h6.4c.33.37.8.61,1.34.61s1.01-.24,1.34-.61c0,0,0,0,0,0h6.39l-1.04,7.53ZM21.25,10.96h-6.84c.06-.18.09-.36.09-.56s-.03-.38-.09-.56h6.84v1.12Z"/>
  <path d="M12.64,12.62c-.56,0-1.02.46-1.02,1.02v4.11c0,.56.46,1.02,1.02,1.02s1.02-.46,1.02-1.02v-4.11c0-.56-.46-1.02-1.02-1.02ZM13.04,17.74c0,.22-.18.4-.4.4h0c-.22,0-.4-.18-.4-.4v-4.11c0-.22.18-.4.4-.4s.4.18.4.4v4.11Z"/>
  <path d="M10.02,13.53c-.07-.56-.57-.96-1.13-.89-.27.03-.51.17-.68.38s-.24.48-.21.75l.48,4.08c.03.27.17.51.38.68.18.14.4.22.63.22.04,0,.08,0,.12,0,.27-.03.51-.17.68-.38s.24-.48.21-.75l-.48-4.08ZM9.8,17.98c-.07.08-.16.14-.27.15-.11.01-.21-.02-.3-.08-.08-.07-.14-.16-.15-.27l-.48-4.08c-.01-.11.02-.21.08-.3.07-.08.16-.14.27-.15.02,0,.03,0,.05,0,.2,0,.38.15.4.36l.48,4.08c.01.11-.02.21-.08.3Z"/>
  <path d="M15.83,18.74s.08,0,.12,0c.23,0,.45-.08.63-.22.21-.17.35-.41.38-.68l.48-4.08c.06-.56-.33-1.06-.89-1.13-.56-.06-1.06.33-1.13.89l-.48,4.08c-.06.56.33,1.06.89,1.13ZM15.55,17.68l.48-4.08c.02-.2.2-.36.4-.36.02,0,.03,0,.05,0,.22.03.38.23.35.45l-.48,4.08c-.01.11-.07.2-.15.27-.08.07-.19.1-.3.08-.22-.03-.38-.23-.35-.45Z"/>
</svg>