<?xml version="1.0" encoding="UTF-8"?>
<svg id="Layer_1" data-name="Layer 1" xmlns="http://www.w3.org/2000/svg" viewBox="0 0 24 24">
  <path d="M14.35,6.72h.59v.59c0,.32.26.58.58.58s.58-.26.58-.58v-.59h.59c.32,0,.58-.26.58-.58s-.26-.58-.58-.58h-.59v-.59c0-.32-.26-.58-.58-.58s-.58.26-.58.58v.59h-.59c-.32,0-.58.26-.58.58s.26.58.58.58Z"/>
  <path d="M21.39,5.55h-1.8c-.28-1.99-2-3.52-4.06-3.52s-3.78,1.53-4.06,3.52h-1.8c-.32,0-.58.26-.58.58v2.94H2.61c-.32,0-.58.26-.58.58v11.73c0,.32.26.58.58.58h18.78c.32,0,.58-.26.58-.58V6.13c0-.32-.26-.58-.58-.58h0ZM15.52,3.2c1.62,0,2.94,1.32,2.94,2.94s-1.32,2.94-2.94,2.94-2.94-1.32-2.94-2.94,1.32-2.94,2.94-2.94ZM11.46,6.72c.28,1.99,2,3.52,4.06,3.52s3.78-1.53,4.06-3.52h1.22v4.7h-10.57v-4.7s1.22,0,1.22,0ZM20.8,14.94h-2.35v-2.35h2.35v2.35ZM13.76,14.94v-2.35h3.53v2.35h-3.53ZM10.24,14.94v-2.35h2.35v2.35h-2.35ZM6.72,12.58v2.35h-1.18v-2.35h1.18ZM3.2,18.46v-2.35h1.18v2.35h-1.18ZM5.54,16.1h1.18v2.35h-1.18v-2.35ZM4.37,14.94h-1.18v-2.35h1.18v2.35ZM3.2,19.63h4.11c.32,0,.58-.26.58-.58v-7.04c0-.32-.26-.58-.58-.58H3.2v-1.18h5.87v10.57H3.2v-1.18ZM16.7,20.8h-2.35v-2.35h2.35v2.35ZM17.87,20.8v-2.94c0-.32-.26-.58-.58-.58h-3.52c-.32,0-.58.26-.58.58v2.94h-2.94v-4.7h10.57v4.7h-2.94Z"/>
</svg>