<?xml version="1.0" encoding="UTF-8"?>
<svg id="Layer_1" data-name="Layer 1" xmlns="http://www.w3.org/2000/svg" viewBox="0 0 24 24">
  <defs>
    <style>
      .cls-1 {
        fill: #1e1e1e;
      }
    </style>
  </defs>
  <path class="cls-1" d="M19.61,6.76H4.39c-.32,0-.57.26-.57.57s.26.57.57.57h.77v.82c0,2.47,1.32,4.65,3.3,5.85l-1.11,3.31c-.08,0-.16-.01-.24-.01-1.08,0-1.95.88-1.95,1.95s.88,1.95,1.95,1.95,1.95-.88,1.95-1.95c0-.59-.26-1.11-.67-1.47l.25-.75h6.64l1.24,3.78c.08.24.3.39.54.39.06,0,.12,0,.18-.03.3-.1.46-.42.37-.72l-1.37-4.16s0,0,0,0l-.75-2.27c1.99-1.2,3.33-3.38,3.33-5.87v-.82h.77c.32,0,.57-.26.57-.57s-.26-.57-.57-.57ZM7.12,20.64c-.45,0-.81-.36-.81-.81s.36-.81.81-.81.81.36.81.81-.36.81-.81.81ZM14.92,16.46h-5.88l.46-1.37c.78.31,1.62.48,2.5.48s1.7-.16,2.47-.46l.45,1.36ZM17.69,8.73c0,3.14-2.55,5.69-5.69,5.69s-5.69-2.55-5.69-5.69v-.82h11.38v.82Z"/>
  <path class="cls-1" d="M7.97,5.16c-.15.28-.05.63.23.78.09.05.18.07.27.07.2,0,.4-.11.5-.3.31-.57.12-1.1-.01-1.48-.14-.4-.25-.69,0-1.15.15-.28.06-.63-.22-.78-.28-.15-.63-.06-.78.22-.51.91-.26,1.62-.09,2.09.12.33.14.44.08.55Z"/>
  <path class="cls-1" d="M11.4,5.16c-.15.28-.05.63.23.78.09.05.18.07.27.07.2,0,.4-.11.5-.3.31-.57.12-1.1-.01-1.48-.14-.4-.25-.69,0-1.15.15-.28.06-.63-.22-.78-.28-.15-.63-.06-.78.22-.51.91-.26,1.62-.09,2.09.12.33.14.44.08.55Z"/>
  <path class="cls-1" d="M14.82,5.16c-.15.28-.05.63.23.78.09.05.18.07.27.07.2,0,.4-.11.5-.3.31-.57.12-1.1-.01-1.48-.14-.4-.25-.69,0-1.15.15-.28.06-.63-.22-.78-.28-.15-.63-.06-.78.22-.51.91-.26,1.62-.09,2.09.12.33.14.44.08.55Z"/>
</svg>