<?xml version="1.0" encoding="UTF-8"?>
<svg id="Layer_1" data-name="Layer 1" xmlns="http://www.w3.org/2000/svg" viewBox="0 0 24 24">
  <path d="M3.51,5.86v12.27h1v-.97h14.97v.97h1V5.86H3.51ZM16.28,16.16H4.52V6.87h11.77v9.29ZM19.48,6.87v1.19c-.3-.24-.68-.38-1.1-.38s-.8.14-1.1.38v-1.19h2.2ZM19.15,9.44c0,.42-.34.76-.76.76s-.76-.34-.76-.76.34-.76.76-.76.76.34.76.76ZM17.29,10.82c.3.24.68.38,1.1.38s.8-.14,1.1-.38v5.34h-2.2v-5.34Z"/>
  <path d="M18.39,13.23c.26,0,.51-.23.5-.5-.01-.27-.22-.5-.5-.5-.26,0-.51.23-.5.5.01.27.22.5.5.5Z"/>
  <path d="M18.39,15.1c.26,0,.51-.23.5-.5-.01-.27-.22-.5-.5-.5-.26,0-.51.23-.5.5.01.27.22.5.5.5Z"/>
  <path d="M15.36,15.16v-7.29H5.44v7.29h9.92ZM8.73,14.15v-3h1.81v3h-1.81ZM6.44,14.15v-5.28h7.91v5.28h-2.82v-.69h.08c.92,0,1.66-.74,1.66-1.66s-.74-1.66-1.66-1.66h-3.89v4.01h-1.28ZM11.54,12.46v-1.31h.08c.36,0,.66.29.66.66s-.29.66-.66.66h-.08Z"/>
</svg>