<?xml version="1.0" encoding="UTF-8"?>
<svg id="Layer_1" data-name="Layer 1" xmlns="http://www.w3.org/2000/svg" viewBox="0 0 24 24">
  <path d="M22.51,7.22c0-2.45-1.99-4.44-4.44-4.44H6.74c-2.45,0-4.44,1.99-4.44,4.44v5.9h3.47v9.08h13.27v-9.08h3.47v-5.9ZM14.98,3.96c-.27,1.17-1.32,2.05-2.58,2.05s-2.31-.88-2.58-2.05h5.16ZM6.95,15.1h10.9v1.18H6.95v-1.18ZM6.95,17.46h10.9v1.18H6.95v-1.18ZM6.95,21.02v-1.18h10.9v1.18H6.95ZM21.32,11.94h-2.29v-2.84h-1.18v4.82H6.95v-4.82h-1.18v2.84h-2.29v-4.72c0-1.8,1.46-3.26,3.26-3.26h1.88c.29,1.83,1.87,3.24,3.78,3.24s3.5-1.41,3.78-3.24h1.88c1.8,0,3.26,1.46,3.26,3.26v4.72Z"/>
</svg>