<?xml version="1.0" encoding="UTF-8"?>
<svg id="Layer_1" data-name="Layer 1" xmlns="http://www.w3.org/2000/svg" viewBox="0 0 24 24">
  <defs>
    <style>
      .cls-1 {
        fill: #1e1e1e;
      }
    </style>
  </defs>
  <path class="cls-1" d="M19.62,12l1.61-1.61c.16-.16.16-.43,0-.59-.16-.16-.43-.16-.59,0l-1.78,1.78h-1.08l.94-.94c.16-.16.16-.43,0-.59-.16-.16-.43-.16-.59,0l-1.53,1.53h-3c-.04-.15-.1-.29-.17-.41l2.12-2.12h2.16c.23,0,.42-.19.42-.42s-.19-.42-.42-.42h-1.32l.88-.88c.16-.16.16-.43,0-.59-.16-.16-.43-.16-.59,0l-.88.88v-1.32c0-.23-.19-.42-.42-.42s-.42.19-.42.42v2.16l-2.12,2.12c-.13-.08-.27-.13-.41-.17v-3l1.53-1.53c.16-.16.16-.43,0-.59-.16-.16-.43-.16-.59,0l-.94.94v-1.08l1.78-1.78c.16-.16.16-.43,0-.59-.16-.16-.43-.16-.59,0l-1.61,1.61-1.61-1.61c-.16-.16-.43-.16-.59,0-.16.16-.16.43,0,.59l1.78,1.78v1.08l-.94-.94c-.16-.16-.43-.16-.59,0-.16.16-.16.43,0,.59l1.53,1.53v3c-.15.04-.29.1-.41.17l-2.12-2.12v-2.16c0-.23-.19-.42-.42-.42s-.42.19-.42.42v1.32l-.88-.88c-.16-.16-.43-.16-.59,0-.16.16-.16.43,0,.59l.88.88h-1.32c-.23,0-.42.19-.42.42s.19.42.42.42h2.16l2.12,2.12c-.08.13-.13.27-.17.41h-3l-1.53-1.53c-.16-.16-.43-.16-.59,0-.16.16-.16.43,0,.59l.94.94h-1.08l-1.78-1.78c-.16-.16-.43-.16-.59,0-.16.16-.16.43,0,.59l1.61,1.61-1.61,1.61c-.16.16-.16.43,0,.59.08.08.19.12.29.12s.21-.04.29-.12l1.78-1.78h1.08l-.94.94c-.16.16-.16.43,0,.59.08.08.19.12.29.12s.21-.04.29-.12l1.53-1.53h3c.04.15.1.29.17.41l-2.12,2.12h-2.16c-.23,0-.42.19-.42.42s.19.42.42.42h1.32l-.88.88c-.16.16-.16.43,0,.59.08.08.19.12.29.12s.21-.04.29-.12l.88-.88v1.32c0,.23.19.42.42.42s.42-.19.42-.42v-2.16l2.12-2.12c.13.08.27.13.41.17v3l-1.53,1.53c-.16.16-.16.43,0,.59.16.16.43.16.59,0l.94-.94v1.08l-1.78,1.78c-.16.16-.16.43,0,.59.16.16.43.16.59,0l1.61-1.61,1.61,1.61c.08.08.19.12.29.12s.21-.04.29-.12c.16-.16.16-.43,0-.59l-1.78-1.78v-1.08l.94.94c.08.08.19.12.29.12s.21-.04.29-.12c.16-.16.16-.43,0-.59l-1.53-1.53v-3c.15-.04.29-.1.41-.17l2.12,2.12v2.16c0,.23.19.42.42.42s.42-.19.42-.42v-1.32l.88.88c.08.08.19.12.29.12s.21-.04.29-.12c.16-.16.16-.43,0-.59l-.88-.88h1.32c.23,0,.42-.19.42-.42s-.19-.42-.42-.42h-2.16l-2.12-2.12c.08-.13.13-.27.17-.41h3l1.53,1.53c.08.08.19.12.29.12s.21-.04.29-.12c.16-.16.16-.43,0-.59l-.94-.94h1.08l1.78,1.78c.08.08.19.12.29.12s.21-.04.29-.12c.16-.16.16-.43,0-.59l-1.61-1.61ZM12,12.81c-.45,0-.81-.37-.81-.81s.37-.81.81-.81.81.37.81.81-.37.81-.81.81Z"/>
</svg>