<?xml version="1.0" encoding="UTF-8"?>
<svg id="Layer_1" data-name="Layer 1" xmlns="http://www.w3.org/2000/svg" xmlns:xlink="http://www.w3.org/1999/xlink" viewBox="0 0 24 24">
  <defs>
    <style>
      .cls-1 {
        fill: none;
      }

      .cls-2 {
        clip-path: url(#clippath);
      }
    </style>
    <clipPath id="clippath">
      <rect class="cls-1" x="4.82" y="3" width="13.5" height="18"/>
    </clipPath>
  </defs>
  <g class="cls-2">
    <g id="Group_875" data-name="Group 875">
      <path id="Path_534" data-name="Path 534" d="M10.22,4.05l.56-.75c.25-.33.72-.4,1.05-.15.19.14.3.36.3.6v.78c0,.46.19.9.52,1.22l2.98,2.84c1.72,1.64,2.69,3.91,2.69,6.28,0,3.38-2.74,6.13-6.12,6.13h-.63c-3.73,0-6.75-3.02-6.75-6.75v-.13c0-1.72.68-3.36,1.89-4.57l.12-.12c.32-.31.82-.3,1.13.02.14.15.22.34.23.55v3.14c0,1.24,1.01,2.25,2.25,2.25s2.25-1.01,2.25-2.25v-.14c0-.63-.25-1.24-.7-1.69l-1.36-1.36c-1.58-1.59-1.76-4.1-.42-5.89"/>
    </g>
  </g>
</svg>