<?xml version="1.0" encoding="UTF-8"?>
<svg id="Layer_1" data-name="Layer 1" xmlns="http://www.w3.org/2000/svg" xmlns:xlink="http://www.w3.org/1999/xlink" viewBox="0 0 24 24">
  <defs>
    <style>
      .cls-1 {
        fill: none;
      }

      .cls-2 {
        clip-path: url(#clippath);
      }
    </style>
    <clipPath id="clippath">
      <rect class="cls-1" x="3.58" y="2.68" width="18" height="16.94"/>
    </clipPath>
  </defs>
  <g class="cls-2">
    <g id="Group_867" data-name="Group 867">
      <path id="Path_530" data-name="Path 530" d="M11.53,7.45c0-1.75-1.42-3.18-3.18-3.18-1.75,0-3.18,1.42-3.18,3.18,0,1.75,1.42,3.18,3.18,3.18h0c1.75,0,3.18-1.42,3.18-3.18M12.99,8.5c-.58,2.57-3.14,4.17-5.7,3.59-2.57-.58-4.17-3.14-3.59-5.7.58-2.57,3.14-4.17,5.7-3.59,1.79.41,3.18,1.8,3.59,3.59h2.38c.3-.34.73-.53,1.18-.53h3.44c.88,0,1.59.71,1.59,1.59,0,.88-.71,1.59-1.59,1.59h-3.44c-.45,0-.88-.19-1.19-.53h-2.38ZM8.35,5.33c1.17,0,2.12.95,2.12,2.12s-.95,2.12-2.12,2.12-2.12-.95-2.12-2.12h0c0-1.17.95-2.12,2.12-2.12M16.82,10.62c.44,0,.79.35.79.79,0,0,0,0,0,0v.27h3.18c.44,0,.79.36.79.79s-.36.79-.79.79h-7.94c-.44,0-.79-.36-.79-.79s.36-.79.79-.79h3.18v-.27c0-.44.35-.79.79-.79,0,0,0,0,0,0M13.11,18.03v-3.71h7.41v3.71c0,.88-.71,1.59-1.59,1.59h-4.23c-.88,0-1.59-.71-1.59-1.59M5.17,13.27h4.24c.88,0,1.59.71,1.59,1.59,0,.88-.71,1.59-1.59,1.59h-.53c0,.58-.47,1.06-1.06,1.06,0,0,0,0,0,0h-2.12c-.58,0-1.06-.47-1.06-1.06,0,0,0,0,0,0v-2.65c0-.29.24-.53.53-.53M9.41,15.39c.29,0,.53-.24.53-.53s-.24-.53-.53-.53h-.53v1.06h.53ZM4.38,18.03h5.82c.44,0,.79.36.79.79s-.36.79-.79.79h-5.82c-.44,0-.79-.36-.79-.79s.36-.79.79-.79"/>
    </g>
  </g>
</svg>