<?xml version="1.0" encoding="UTF-8"?>
<svg id="Layer_1" data-name="Layer 1" xmlns="http://www.w3.org/2000/svg" viewBox="0 0 24 24">
  <path d="M13.14,8.69l-8.16,1.31v8.04c-.23-.1-.48-.16-.75-.16-1.04,0-1.88.84-1.88,1.88s.84,1.88,1.88,1.88,1.88-.84,1.88-1.88v-6.54l5.89-.95v3.38c-.23-.1-.48-.16-.75-.16-1.04,0-1.88.84-1.88,1.88s.84,1.88,1.88,1.88,1.88-.84,1.88-1.88c0-.04,0-8.7,0-8.7ZM4.23,20.52c-.41,0-.75-.34-.75-.75s.34-.75.75-.75.75.34.75.75-.34.75-.75.75ZM6.11,12.08v-1.12l5.89-.95v1.12l-5.89.95ZM11.26,18.14c-.41,0-.75-.34-.75-.75s.34-.75.75-.75.75.34.75.75-.34.75-.75.75Z"/>
  <path d="M16.85,2.35v8.13c-.23-.1-.48-.16-.75-.16-1.04,0-1.88.84-1.88,1.88s.84,1.88,1.88,1.88,1.88-.84,1.88-1.88v-6.45h1.12c1.41,0,2.56-1.15,2.56-2.56v-.84h-4.81ZM16.1,12.95c-.41,0-.75-.34-.75-.75s.34-.75.75-.75.75.34.75.75-.34.75-.75.75ZM19.1,4.62h-1.12v-1.14h2.52c-.14.65-.71,1.14-1.4,1.14Z"/>
</svg>