<?xml version="1.0" encoding="UTF-8"?>
<svg id="Layer_1" data-name="Layer 1" xmlns="http://www.w3.org/2000/svg" viewBox="0 0 24 24">
  <path d="M3.13,2.03v20.44h18.04V2.03H3.13ZM19.98,21.27H4.33v-13.25h15.65v13.25ZM19.98,6.82H4.33v-3.59h15.65v3.59Z"/>
  <path d="M15.99,10.85c-1.03-1.03-2.39-1.59-3.84-1.59s-2.81.56-3.84,1.59c-1.03,1.03-1.59,2.39-1.59,3.84s.56,2.81,1.59,3.84,2.39,1.59,3.84,1.59,2.81-.56,3.84-1.59,1.59-2.39,1.59-3.84-.56-2.81-1.59-3.84ZM15.14,17.68c-1.65,1.65-4.33,1.65-5.98,0-1.65-1.65-1.65-4.33,0-5.98.82-.82,1.91-1.24,2.99-1.24s2.17.41,2.99,1.24c1.65,1.65,1.65,4.33,0,5.98Z"/>
  <path d="M14.35,12.49c-.59-.59-1.37-.91-2.2-.91s-1.61.32-2.2.91c-.59.59-.91,1.37-.91,2.2s.32,1.61.91,2.2c.59.59,1.37.91,2.2.91s1.61-.32,2.2-.91c.59-.59.91-1.37.91-2.2s-.32-1.61-.91-2.2ZM13.51,16.04c-.36.36-.84.56-1.35.56s-.99-.2-1.35-.56-.56-.84-.56-1.35.2-.99.56-1.35c.36-.36.84-.56,1.35-.56s.99.2,1.35.56c.22.22.37.47.46.75h-1.3v1.2h1.3c-.09.28-.25.54-.46.75Z"/>
  <rect x="5.63" y="4.43" width="1.31" height="1.2"/>
  <rect x="17.52" y="4.43" width="1.31" height="1.2"/>
  <rect x="14.89" y="4.43" width="1.31" height="1.2"/>
  <rect x="12.26" y="4.43" width="1.31" height="1.2"/>
</svg>