<?xml version="1.0" encoding="UTF-8"?>
<svg id="Layer_1" data-name="Layer 1" xmlns="http://www.w3.org/2000/svg" viewBox="0 0 24 24">
  <path d="M21.85,10.17c-.19,0-.38-.07-.52-.21-5-4.96-13.12-4.96-18.12,0-.29.29-.76.28-1.04,0-.29-.29-.28-.76,0-1.04,5.57-5.52,14.62-5.52,20.19,0,.29.29.29.75,0,1.04-.14.14-.33.22-.52.22Z"/>
  <path d="M19.46,12.54c-.19,0-.38-.07-.52-.21-3.67-3.65-9.65-3.65-13.33,0-.29.29-.76.28-1.04,0-.29-.29-.28-.76,0-1.04,4.25-4.21,11.16-4.21,15.4,0,.29.29.29.75,0,1.04-.14.14-.33.22-.52.22Z"/>
  <path d="M17.06,14.92c-.19,0-.38-.07-.52-.21-2.35-2.34-6.19-2.34-8.54,0-.29.29-.76.28-1.04,0-.29-.29-.28-.76,0-1.04,2.93-2.9,7.69-2.9,10.61,0,.29.29.29.75,0,1.04-.14.14-.33.22-.52.22Z"/>
  <path d="M14.67,17.29c-.19,0-.38-.07-.52-.21-1.03-1.03-2.72-1.03-3.75,0-.29.29-.76.28-1.04,0-.29-.29-.28-.76,0-1.04,1.61-1.59,4.22-1.59,5.83,0,.29.29.29.75,0,1.04-.14.14-.33.22-.52.22Z"/>
  <circle cx="12.27" cy="19.31" r="1.47"/>
</svg>