<?xml version="1.0" encoding="UTF-8"?>
<svg id="Layer_1" data-name="Layer 1" xmlns="http://www.w3.org/2000/svg" viewBox="0 0 24 24">
  <path d="M3.47,3.45v17.09h17.06V3.45H3.47ZM7.67,6.37c-.26,0-.48-.22-.48-.48s.22-.48.48-.48.48.22.48.48-.22.48-.48.48ZM4.47,4.46h2.83c-.64.16-1.12.75-1.12,1.44s.48,1.28,1.12,1.44h-2.83v-2.88ZM19.53,19.54H4.47v-11.21h15.05v11.21ZM8.03,7.33c.64-.16,1.12-.75,1.12-1.44s-.48-1.28-1.12-1.44h11.5v2.88h-11.5Z"/>
  <path d="M11.03,6.4c.26,0,.51-.23.5-.5-.01-.27-.22-.5-.5-.5-.26,0-.51.23-.5.5.01.27.22.5.5.5Z"/>
  <path d="M12.9,6.4c.26,0,.51-.23.5-.5-.01-.27-.22-.5-.5-.5-.26,0-.51.23-.5.5.01.27.22.5.5.5Z"/>
  <path d="M14.78,6.4c.26,0,.51-.23.5-.5-.01-.27-.22-.5-.5-.5-.26,0-.51.23-.5.5.01.27.22.5.5.5Z"/>
  <path d="M16.65,6.4c.26,0,.51-.23.5-.5-.01-.27-.22-.5-.5-.5-.26,0-.51.23-.5.5.01.27.22.5.5.5Z"/>
  <path d="M17.84,9.86H6.16v8.15h11.67v-8.15h0ZM16.83,10.86v1.31H7.17v-1.31h9.67ZM16.83,13.17v1.39H7.17v-1.39h9.67ZM7.17,17v-1.44h9.67v1.44H7.17Z"/>
</svg>