<?xml version="1.0" encoding="UTF-8"?>
<svg id="Layer_1" data-name="Layer 1" xmlns="http://www.w3.org/2000/svg" viewBox="0 0 24 24">
  <defs>
    <style>
      .cls-1 {
        fill: #1e1e1e;
      }
    </style>
  </defs>
  <path d="M13.23,15.59v-.97c0-.68-.55-1.23-1.23-1.23s-1.23.55-1.23,1.23v.97h-.27v2.47h3.01v-2.47h-.27ZM11.04,14.62c0-.53.43-.96.96-.96s.96.43.96.96v.97h-.27v-.97c0-.38-.31-.68-.68-.68s-.68.31-.68.68v.97h-.27v-.97ZM12.41,15.59h-.82v-.97c0-.23.18-.41.41-.41s.41.18.41.41v.97ZM11.61,17.79c.06-.16.21-.27.39-.27s.33.11.39.27h-.77ZM13.23,17.79h-.56c-.06-.31-.34-.55-.67-.55s-.61.24-.67.55h-.56v-1.93h2.47v1.93Z"/>
  <path class="cls-1" d="M20.46,2.04H3.54c-.28,0-.5.22-.5.5v18.92c0,.28.22.5.5.5h16.93c.28,0,.5-.22.5-.5V2.54c0-.28-.22-.5-.5-.5ZM16.98,20.96h-4.48v-2.05h-1v2.05h-4.48v-10.95h4.48v2.74h1v-2.74h4.48v10.95ZM19.97,20.96h-1.99v-11.45c0-.28-.22-.5-.5-.5H6.52c-.28,0-.5.22-.5.5v11.45h-1.99V3.04h15.93v17.92Z"/>
  <path class="cls-1" d="M8.52,7.02h1.99c.2,0,.38-.12.46-.31s.03-.4-.11-.54l-1-1c-.19-.19-.51-.19-.7,0l-1,1c-.14.14-.18.36-.11.54s.26.31.46.31Z"/>
  <path class="cls-1" d="M14.14,6.88c.1.1.22.15.35.15s.25-.05.35-.15l1-1c.14-.14.18-.36.11-.54s-.26-.31-.46-.31h-1.99c-.2,0-.38.12-.46.31s-.03.4.11.54l1,1Z"/>
</svg>