<?xml version="1.0" encoding="UTF-8"?>
<svg id="Layer_1" data-name="Layer 1" xmlns="http://www.w3.org/2000/svg" viewBox="0 0 24 24">
  <path d="M15.95,2.22h-7.9c-.77,0-1.4.63-1.4,1.4v18.15h10.7V3.62c0-.77-.63-1.4-1.4-1.4ZM16.2,20.63H7.8v-6.63h8.4v6.63ZM7.8,12.84V3.62c0-.14.11-.25.25-.25h7.9c.14,0,.25.11.25.25v9.22H7.8Z"/>
  <path d="M9.45,8.9c-.32,0-.58.26-.58.58v1.46c0,.32.26.58.58.58s.58-.26.58-.58v-1.46c0-.32-.26-.58-.58-.58Z"/>
  <path d="M9.45,17.98c.32,0,.58-.26.58-.58v-1.46c0-.32-.26-.58-.58-.58s-.58.26-.58.58v1.46c0,.32.26.58.58.58Z"/>
</svg>