<?xml version="1.0" encoding="UTF-8"?>
<svg id="Layer_1" data-name="Layer 1" xmlns="http://www.w3.org/2000/svg" viewBox="0 0 24 24">
  <path d="M3.76,2.67v18.66h16.47V2.67H3.76ZM19.14,20.24H4.86v-12.1h14.29v12.1ZM19.14,7.04H4.86v-3.28h14.29v3.28Z"/>
  <path d="M15.5,10.72c-.94-.94-2.18-1.45-3.5-1.45s-2.57.52-3.5,1.45c-.94.94-1.45,2.18-1.45,3.5s.52,2.57,1.45,3.5,2.18,1.45,3.5,1.45,2.57-.52,3.5-1.45,1.45-2.18,1.45-3.5-.52-2.57-1.45-3.5ZM14.73,16.95c-1.51,1.51-3.96,1.51-5.46,0-1.51-1.51-1.51-3.96,0-5.46.75-.75,1.74-1.13,2.73-1.13s1.98.38,2.73,1.13c1.51,1.51,1.51,3.96,0,5.46Z"/>
  <rect x="6.05" y="4.86" width="1.2" height="1.09"/>
  <rect x="16.9" y="4.86" width="1.2" height="1.09"/>
  <rect x="14.5" y="4.86" width="1.2" height="1.09"/>
</svg>