<?xml version="1.0" encoding="UTF-8"?>
<svg id="Layer_1" data-name="Layer 1" xmlns="http://www.w3.org/2000/svg" xmlns:xlink="http://www.w3.org/1999/xlink" viewBox="0 0 24 24">
  <defs>
    <style>
      .cls-1 {
        fill: #fff;
      }

      .cls-2 {
        fill: none;
      }

      .cls-3 {
        clip-path: url(#clippath);
      }
    </style>
    <clipPath id="clippath">
      <rect class="cls-2" x="1" y="1" width="22" height="22"/>
    </clipPath>
  </defs>
  <g class="cls-3">
    <g id="Group_1369" data-name="Group 1369">
      <path id="Path_1085" data-name="Path 1085" class="cls-1" d="M12,1C5.92,1,1,5.92,1,12s4.92,11,11,11,11-4.92,11-11c0-6.07-4.93-10.99-11-11M12,2.83c.44.02.86.22,1.16.55.53.54.95,1.17,1.25,1.87.3.7.54,1.43.71,2.17h-6.23c.17-.74.41-1.47.71-2.17.29-.7.72-1.33,1.25-1.87.3-.33.72-.52,1.16-.55M8.41,3.56c-.18.3-.34.61-.49.93-.41.94-.73,1.92-.94,2.92h-2.92c.99-1.72,2.52-3.08,4.35-3.86M15.59,3.56c1.83.78,3.36,2.13,4.35,3.86h-2.92c-.21-1-.53-1.99-.94-2.92-.15-.32-.31-.63-.49-.93M3.25,9.25h3.42c-.23,1.83-.23,3.67,0,5.5h-3.42c-.56-1.79-.56-3.71,0-5.5M8.54,9.25h6.93c.13.91.2,1.83.2,2.75,0,.92-.07,1.84-.2,2.75h-6.92c-.13-.91-.2-1.83-.2-2.75,0-.92.07-1.84.2-2.75M17.33,9.25h3.42c.56,1.79.56,3.71,0,5.5h-3.42c.11-.91.17-1.83.17-2.75,0-.92-.06-1.84-.17-2.75M4.07,16.58h2.92c.21,1.01.53,1.99.94,2.92.15.32.31.63.49.93-1.83-.78-3.36-2.13-4.35-3.86M8.88,16.58h6.23c-.17.74-.41,1.47-.71,2.17-.29.7-.72,1.33-1.25,1.87-.3.33-.72.52-1.16.55-.44-.02-.86-.22-1.16-.55-.53-.54-.95-1.17-1.25-1.87-.3-.7-.54-1.43-.71-2.17M17.02,16.58h2.92c-.99,1.72-2.52,3.08-4.35,3.86.18-.3.34-.61.49-.93.41-.94.73-1.92.94-2.93"/>
    </g>
  </g>
</svg>