<?xml version="1.0" encoding="UTF-8"?>
<svg id="Layer_1" data-name="Layer 1" xmlns="http://www.w3.org/2000/svg" xmlns:xlink="http://www.w3.org/1999/xlink" viewBox="0 0 35 35">
  <defs>
    <style>
      .cls-1 {
        fill: #fff;
      }

      .cls-2 {
        fill: none;
      }

      .cls-3 {
        fill: #8d0808;
      }

      .cls-4 {
        clip-path: url(#clippath);
      }
    </style>
    <clipPath id="clippath">
      <rect class="cls-2" x="9.99" y="9.94" width="14.68" height="14.68"/>
    </clipPath>
  </defs>
  <g id="logo-02">
    <circle class="cls-3" cx="17.33" cy="17.28" r="17"/>
  </g>
  <g id="Group_1040" data-name="Group 1040">
    <g id="Group_1026" data-name="Group 1026">
      <g class="cls-4">
        <g id="Group_1025" data-name="Group 1025">
          <path id="Path_551" data-name="Path 551" class="cls-1" d="M14.71,10.64c-.22-.53-.8-.82-1.36-.67l-2.52.69c-.5.14-.84.59-.85,1.11,0,7.09,5.75,12.84,12.84,12.84h0c.52,0,.97-.35,1.11-.85l.69-2.52c.15-.55-.13-1.13-.66-1.35l-2.75-1.15c-.47-.2-1.01-.06-1.33.33l-1.16,1.42c-2.02-.96-3.65-2.59-4.61-4.61l1.41-1.15c.39-.32.53-.86.33-1.33l-1.15-2.75h0Z"/>
        </g>
      </g>
    </g>
  </g>
</svg>