<?xml version="1.0" encoding="UTF-8"?>
<svg id="Layer_1" data-name="Layer 1" xmlns="http://www.w3.org/2000/svg" viewBox="0 0 24 24">
  <path d="M12.03,1.22C5.93,1.22,1.22,5.67,1.22,11.68c0,3.14,1.29,5.86,3.4,7.74.37.33.29.52.35,2.53.02.48.42.85.89.84.11,0,.22-.03.32-.07,2.3-1.01,2.33-1.09,2.72-.99,6.67,1.84,13.89-2.43,13.89-10.04,0-6.01-4.67-10.46-10.76-10.46ZM18.51,9.27l-3.17,5.03c-.48.76-1.49.98-2.25.5-.03-.02-.07-.04-.1-.07l-2.53-1.89c-.23-.17-.55-.17-.78,0l-3.41,2.58c-.46.34-1.05-.2-.74-.68l3.17-5.03c.48-.76,1.49-.98,2.25-.5.03.02.07.04.1.07l2.53,1.89c.23.17.55.17.78,0l3.41-2.58c.45-.35,1.05.2.74.68h0Z"/>
</svg>