<?xml version="1.0" encoding="UTF-8"?>
<svg id="Layer_1" data-name="Layer 1" xmlns="http://www.w3.org/2000/svg" viewBox="0 0 24 24">
  <path d="M14.32,9.51v3.42c0,.09-.07.16-.16.16h-.55c-.05,0-.1-.03-.13-.06l-1.57-2.12v2.03c0,.09-.07.16-.16.16h-.55c-.09,0-.16-.07-.16-.16v-3.42c0-.09.07-.16.16-.16h.54s.1.03.13.07l1.57,2.12v-2.03c0-.09.07-.16.16-.16h.55c.09,0,.16.07.16.15h0ZM10.37,9.35h-.55c-.09,0-.16.07-.16.16v3.42c0,.09.07.16.16.16h.55c.09,0,.16-.07.16-.16v-3.42c0-.08-.07-.16-.16-.16ZM9.05,12.22h-1.5v-2.71c0-.09-.07-.16-.16-.16h-.55c-.09,0-.16.07-.16.16v3.42s.01.08.04.11c.03.03.06.04.11.04h2.2c.09,0,.16-.07.16-.16v-.55c0-.08-.07-.16-.15-.16h0ZM17.21,9.35h-2.2c-.08,0-.16.07-.16.16v3.42c0,.08.07.16.16.16h2.2c.09,0,.16-.07.16-.16v-.55c0-.09-.07-.16-.16-.16h-1.5v-.57h1.5c.09,0,.16-.07.16-.16v-.55c0-.09-.07-.16-.16-.16h-1.5v-.58h1.5c.09,0,.16-.07.16-.16v-.55c0-.08-.07-.16-.16-.16h0ZM22.78,5.15v13.73c0,2.16-1.77,3.9-3.93,3.9H5.12c-2.16,0-3.9-1.78-3.9-3.93V5.12c0-2.16,1.78-3.9,3.93-3.9h13.73c2.16,0,3.9,1.77,3.9,3.93ZM19.82,11.05c0-3.51-3.53-6.37-7.85-6.37s-7.85,2.86-7.85,6.37c0,3.15,2.79,5.79,6.57,6.29.92.2.81.53.61,1.77-.03.2-.16.77.68.43.84-.35,4.52-2.66,6.17-4.56,1.14-1.25,1.68-2.52,1.68-3.92h0Z"/>
</svg>