<?xml version="1.0" encoding="UTF-8"?>
<svg id="Layer_1" data-name="Layer 1" xmlns="http://www.w3.org/2000/svg" viewBox="0 0 24 24">
  <path d="M19.55,4.35c-2.02-2.02-4.7-3.13-7.56-3.13C6.1,1.22,1.31,6.01,1.31,11.9c0,1.88.49,3.72,1.42,5.34l-1.52,5.54,5.67-1.49c1.56.85,3.32,1.3,5.11,1.3h0c5.89,0,10.79-4.79,10.79-10.69,0-2.85-1.21-5.54-3.23-7.56ZM12,20.79c-1.6,0-3.16-.43-4.52-1.24l-.32-.19-3.36.88.9-3.28-.21-.34c-.89-1.42-1.36-3.05-1.36-4.73C3.11,7.01,7.1,3.02,12,3.02c2.37,0,4.6.92,6.28,2.6s2.71,3.91,2.7,6.28c0,4.9-4.09,8.89-8.98,8.89ZM16.87,14.14c-.26-.13-1.58-.78-1.82-.87-.25-.09-.42-.13-.6.13-.18.27-.69.87-.85,1.05-.15.18-.31.2-.58.07-1.57-.78-2.6-1.4-3.63-3.18-.27-.47.27-.44.78-1.46.09-.18.04-.33-.02-.47s-.6-1.45-.82-1.98c-.22-.52-.44-.45-.6-.46-.15,0-.33,0-.51,0s-.47.07-.71.33c-.25.27-.93.91-.93,2.23s.96,2.58,1.09,2.76c.13.18,1.88,2.87,4.56,4.03,1.69.73,2.36.79,3.21.67.52-.08,1.58-.65,1.8-1.27s.22-1.16.15-1.27c-.06-.12-.24-.19-.51-.32Z"/>
</svg>