<?xml version="1.0" encoding="UTF-8"?>
<svg id="Layer_1" data-name="Layer 1" xmlns="http://www.w3.org/2000/svg" xmlns:xlink="http://www.w3.org/1999/xlink" viewBox="0 0 24 24">
  <defs>
    <style>
      .cls-1 {
        fill: none;
      }

      .cls-2 {
        clip-path: url(#clippath);
      }
    </style>
    <clipPath id="clippath">
      <rect class="cls-1" x="3" y="2.5" width="18" height="18"/>
    </clipPath>
  </defs>
  <g class="cls-2">
    <g id="Group_385" data-name="Group 385">
      <path id="Path_194" data-name="Path 194" d="M5.57,4.43c-.35,0-.64.29-.64.64v12.86c0,.35.29.64.64.64h12.86c.35,0,.64-.29.64-.64V5.07c0-.35-.29-.64-.64-.64H5.57ZM3,5.07c0-1.42,1.15-2.57,2.57-2.57h12.86c1.42,0,2.57,1.15,2.57,2.57v12.86c0,1.42-1.15,2.57-2.57,2.57H5.57c-1.42,0-2.57-1.15-2.57-2.57V5.07ZM11.04,15.03v-2.57h-2.57c-.53,0-.96-.43-.96-.96s.43-.96.96-.96h2.57v-2.57c0-.53.43-.96.96-.96s.96.43.96.96v2.57h2.57c.53,0,.96.43.96.96s-.43.96-.96.96h-2.57v2.57c0,.53-.43.96-.96.96-.53,0-.96-.43-.96-.96h0"/>
    </g>
  </g>
</svg>