<?xml version="1.0" encoding="UTF-8"?>
<svg id="Layer_1" data-name="Layer 1" xmlns="http://www.w3.org/2000/svg" xmlns:xlink="http://www.w3.org/1999/xlink" viewBox="0 0 24 24">
  <defs>
    <style>
      .cls-1 {
        fill: none;
      }

      .cls-2 {
        clip-path: url(#clippath);
      }

      .cls-3 {
        fill: #181a20;
      }
    </style>
    <clipPath id="clippath">
      <rect class="cls-1" x="1.43" y="3.39" width="21.13" height="17.22"/>
    </clipPath>
  </defs>
  <g id="Group_1030" data-name="Group 1030">
    <g id="Group_823" data-name="Group 823">
      <g class="cls-2">
        <g id="Group_822" data-name="Group 822">
          <path id="Path_523" data-name="Path 523" class="cls-3" d="M15.73,8.6c.24,0,.48.01.72.04-.64-3.01-3.87-5.25-7.54-5.25-4.12,0-7.48,2.8-7.48,6.35.08,2.08,1.2,3.99,2.99,5.06l-.74,2.25,2.61-1.31c.86.21,1.74.34,2.62.37.23,0,.47-.01.7-.03-.16-.51-.24-1.04-.23-1.57.11-3.38,2.94-6.03,6.32-5.92.01,0,.02,0,.03,0ZM11.72,6.57c.49-.03.9.34.93.83,0,.04,0,.07,0,.11.03.48-.34.9-.83.93-.03,0-.07,0-.1,0-.57.05-1.07-.37-1.13-.93.06-.57.56-.98,1.13-.94M6.48,8.44c-.56.04-1.06-.37-1.13-.93.06-.57.56-.98,1.13-.94.49-.03.91.33.94.82,0,.04,0,.08,0,.12.03.48-.34.9-.82.93-.04,0-.08,0-.12,0M22.57,14.43c0-2.99-2.99-5.43-6.35-5.43-3.56,0-6.35,2.44-6.35,5.43s2.8,5.43,6.35,5.43c.76-.04,1.52-.17,2.25-.38l2.05,1.13-.57-1.87c1.5-.95,2.47-2.54,2.62-4.31M14.15,13.49c-.4-.03-.72-.35-.74-.75.03-.4.34-.72.74-.74.46-.05.88.28.94.74-.05.47-.47.8-.94.75M18.26,13.49c-.4-.03-.72-.35-.74-.75.03-.4.34-.72.74-.74.46-.05.88.28.94.74-.05.47-.47.8-.94.75"/>
        </g>
      </g>
    </g>
  </g>
</svg>