<?xml version="1.0" encoding="UTF-8"?>
<svg id="Layer_1" data-name="Layer 1" xmlns="http://www.w3.org/2000/svg" viewBox="0 0 24 24">
  <path d="M12,17.54c-3.05,0-5.54-2.49-5.54-5.54s2.49-5.54,5.54-5.54,5.54,2.49,5.54,5.54-2.49,5.54-5.54,5.54ZM12,8.3c-2.04,0-3.7,1.66-3.7,3.7s1.66,3.7,3.7,3.7,3.7-1.66,3.7-3.7-1.66-3.7-3.7-3.7Z"/>
  <path d="M17.15,22.78H6.85c-3.1,0-5.63-2.53-5.63-5.63V6.85C1.22,3.74,3.74,1.22,6.85,1.22h10.31c3.1,0,5.63,2.53,5.63,5.63v10.31c0,3.1-2.53,5.63-5.63,5.63ZM6.85,3.06c-2.09,0-3.79,1.7-3.79,3.78v10.31c0,2.09,1.7,3.78,3.79,3.78h10.31c2.09,0,3.78-1.7,3.78-3.78V6.85c0-2.09-1.7-3.78-3.78-3.78H6.85Z"/>
  <path d="M18.97,6.21c0,.7-.57,1.27-1.27,1.27s-1.27-.57-1.27-1.27.57-1.27,1.27-1.27,1.27.57,1.27,1.27Z"/>
</svg>