<?xml version="1.0" encoding="UTF-8"?>
<svg id="Layer_1" data-name="Layer 1" xmlns="http://www.w3.org/2000/svg" viewBox="0 0 24 24">
  <defs>
    <style>
      .cls-1 {
        fill: #fff;
      }

      .cls-2 {
        fill: none;
      }

      .cls-3 {
        isolation: isolate;
      }
    </style>
  </defs>
  <g id="Group_1414" data-name="Group 1414">
    <g id="Group_1368" data-name="Group 1368">
      <g id="Ellipse_19" data-name="Ellipse 19">
        <circle class="cls-2" cx="12" cy="12" r="11"/>
        <path class="cls-1" d="M12,23c-6.07,0-11-4.93-11-11S5.93,1,12,1s11,4.93,11,11-4.93,11-11,11ZM12,3C7.04,3,3,7.04,3,12s4.04,9,9,9,9-4.04,9-9S16.96,3,12,3Z"/>
      </g>
      <g id="_" data-name=" " class="cls-3">
        <g class="cls-3">
          <path class="cls-1" d="M12.14,11.34c.43.13.77.26,1.04.39s.5.31.69.56.28.58.28.98c0,.32-.08.62-.25.9-.17.27-.42.49-.76.66s-.74.25-1.22.25h0v.72h-.34v-.74c-.62-.05-1.13-.25-1.53-.58s-.61-.77-.65-1.3h1.35c.02.22.11.41.25.57s.34.27.58.32v-1.76l-.18-.05c-.43-.13-.78-.25-1.05-.37-.27-.12-.5-.31-.68-.56s-.28-.58-.28-.99c0-.35.09-.66.28-.93.19-.26.45-.47.78-.61.33-.14.71-.22,1.13-.23v-.76h.34v.77c.62.04,1.12.22,1.49.54.37.32.58.73.63,1.23h-1.37c-.03-.2-.11-.37-.24-.51-.13-.14-.3-.23-.51-.27v1.71l.23.07ZM10.95,10.79c.14.13.35.25.62.36v-1.62c-.26.01-.47.08-.62.21s-.22.3-.22.53.07.39.22.53ZM12.56,13.86c.16-.15.23-.34.23-.57,0-.22-.08-.4-.23-.54-.15-.14-.37-.25-.65-.35v1.68c.28,0,.49-.08.65-.23Z"/>
        </g>
      </g>
    </g>
  </g>
</svg>