<?xml version="1.0" encoding="UTF-8"?>
<svg id="Layer_1" data-name="Layer 1" xmlns="http://www.w3.org/2000/svg" xmlns:xlink="http://www.w3.org/1999/xlink" viewBox="0 0 24 24">
  <defs>
    <style>
      .cls-1 {
        fill: #fff;
      }

      .cls-2 {
        fill: none;
      }

      .cls-3 {
        clip-path: url(#clippath);
      }
    </style>
    <clipPath id="clippath">
      <rect class="cls-2" x="2.25" y="3.66" width="19.5" height="17.5"/>
    </clipPath>
  </defs>
  <g class="cls-3">
    <g id="Group_1355" data-name="Group 1355">
      <path id="Path_1076" data-name="Path 1076" class="cls-1" d="M17,3.66H7c-2.62,0-4.75,2.13-4.75,4.75v8c0,2.62,2.13,4.75,4.75,4.75h10c2.62,0,4.75-2.13,4.75-4.75v-8c0-2.62-2.13-4.75-4.75-4.75M20.25,16.41c0,1.79-1.46,3.25-3.25,3.25H7c-1.79,0-3.25-1.46-3.25-3.25v-8c0-1.79,1.46-3.25,3.25-3.25h10c1.79,0,3.25,1.46,3.25,3.25v8Z"/>
      <path id="Path_1077" data-name="Path 1077" class="cls-1" d="M6.02,8.16c.41,0,.75-.34.75-.75s-.34-.75-.75-.75h0c-.41,0-.74.34-.74.75,0,.41.34.75.75.75"/>
      <path id="Path_1078" data-name="Path 1078" class="cls-1" d="M8.02,8.16c.41,0,.75-.34.75-.75s-.34-.75-.75-.75h0c-.41,0-.74.34-.74.75,0,.41.34.75.75.75"/>
      <path id="Path_1079" data-name="Path 1079" class="cls-1" d="M10.02,8.16c.41,0,.75-.34.75-.75s-.34-.75-.75-.75h0c-.41,0-.74.34-.74.75,0,.41.34.75.75.75"/>
      <path id="Path_1080" data-name="Path 1080" class="cls-1" d="M12.75,11.41c0-.96-.79-1.75-1.75-1.75h-4c-.96,0-1.75.79-1.75,1.75v2c0,.96.79,1.75,1.75,1.75h4c.96,0,1.75-.79,1.75-1.75v-2ZM11.25,13.41c0,.14-.11.25-.25.25,0,0,0,0,0,0h-4c-.14,0-.25-.11-.25-.25,0,0,0,0,0,0v-2c0-.14.11-.25.25-.25,0,0,0,0,0,0h4c.14,0,.25.11.25.25,0,0,0,0,0,0v2Z"/>
      <path id="Path_1081" data-name="Path 1081" class="cls-1" d="M18,10.66h-3c-.41,0-.75.34-.75.75s.34.75.75.75h3c.41,0,.75-.34.75-.75s-.34-.75-.75-.75h0"/>
      <path id="Path_1082" data-name="Path 1082" class="cls-1" d="M18,13.66h-3c-.41,0-.75.34-.75.75s.34.75.75.75h3c.41,0,.75-.34.75-.75s-.34-.75-.75-.75h0"/>
      <path id="Path_1083" data-name="Path 1083" class="cls-1" d="M18,16.66h-5c-.41,0-.75.34-.75.75s.34.75.75.75h5c.41,0,.75-.34.75-.75s-.34-.75-.75-.75h0"/>
      <path id="Path_1084" data-name="Path 1084" class="cls-1" d="M10,16.66h-4c-.41,0-.75.34-.75.75s.34.75.75.75h4c.41,0,.75-.34.75-.75s-.34-.75-.75-.75"/>
    </g>
  </g>
</svg>