<?xml version="1.0" encoding="UTF-8"?>
<svg id="Layer_1" data-name="Layer 1" xmlns="http://www.w3.org/2000/svg" xmlns:xlink="http://www.w3.org/1999/xlink" viewBox="0 0 24 24">
  <defs>
    <style>
      .cls-1 {
        fill: #fff;
      }

      .cls-2 {
        fill: none;
      }

      .cls-3 {
        clip-path: url(#clippath);
      }
    </style>
    <clipPath id="clippath">
      <rect class="cls-2" x="3" y="3" width="18" height="18"/>
    </clipPath>
  </defs>
  <g id="Group_382" data-name="Group 382">
    <g class="cls-3">
      <g id="Group_381" data-name="Group 381">
        <path id="Path_192" data-name="Path 192" class="cls-1" d="M19.09,12.12c0-3.98-3.23-7.21-7.21-7.21-3.98,0-7.21,3.23-7.21,7.21,0,3.98,3.23,7.21,7.21,7.21s7.21-3.23,7.21-7.21h0M3,12.12C3,7.22,6.97,3.25,11.88,3.25s8.88,3.97,8.88,8.88-3.97,8.88-8.88,8.88S3,17.03,3,12.12M13.63,14.52l-5,1.92c-.43.17-.91-.04-1.08-.47-.08-.2-.08-.42,0-.61l1.92-5c.11-.29.34-.53.64-.64l5-1.92c.43-.17.91.04,1.08.47.08.19.08.41,0,.6l-1.92,5c-.11.29-.34.53-.64.64M12.98,12.12c0-.61-.5-1.11-1.12-1.1-.61,0-1.11.5-1.1,1.12,0,.61.5,1.1,1.11,1.1.61,0,1.11-.5,1.11-1.11h0"/>
      </g>
    </g>
  </g>
</svg>