<?xml version="1.0" encoding="UTF-8"?>
<svg id="Layer_1" data-name="Layer 1" xmlns="http://www.w3.org/2000/svg" viewBox="0 0 24 24">
  <defs>
    <style>
      .cls-1 {
        fill: #1e1e1e;
      }
    </style>
  </defs>
  <path class="cls-1" d="M22.14,20.59H2.79c-.2,0-.36-.16-.36-.36s.16-.36.36-.36h19.35c.2,0,.36.16.36.36s-.16.36-.36.36Z"/>
  <path class="cls-1" d="M7.23,15.16s-.03,0-.04,0c-2.95-.36-5.17-2.87-5.17-5.85,0-3.25,2.64-5.9,5.89-5.9s5.89,2.65,5.89,5.9c0,2.61-1.75,4.94-4.25,5.66-.2.05-.39-.06-.45-.25-.05-.19.05-.39.25-.45,2.2-.63,3.73-2.68,3.73-4.97,0-2.85-2.32-5.17-5.17-5.17s-5.17,2.32-5.17,5.17c0,2.61,1.95,4.81,4.53,5.13.2.02.34.21.32.4-.02.18-.18.32-.36.32Z"/>
  <path class="cls-1" d="M5.8,20.59c-.11,0-.21-.05-.28-.13-.13-.15-.1-.38.05-.51,3.13-2.55.05-9.48.02-9.55-.08-.18,0-.4.18-.48.18-.08.4,0,.48.18.14.3,3.34,7.51-.23,10.41-.07.05-.15.08-.23.08Z"/>
  <path class="cls-1" d="M10.84,20.59c-.09,0-.18-.03-.25-.1-3.37-3.09-.45-9.97-.33-10.26.08-.18.29-.27.48-.19.18.08.27.29.19.48-.03.07-2.84,6.7.15,9.44.15.14.16.36.02.51-.07.08-.17.12-.27.12Z"/>
  <path class="cls-1" d="M8.32,11.82c-.14,0-.27-.08-.33-.2l-.98-2.02c-.09-.18-.01-.4.17-.48.18-.09.4-.01.48.17l.6,1.24.43-1.2c.07-.19.27-.29.46-.22.19.07.29.27.22.46l-.72,2.02c-.05.14-.18.23-.32.24h-.02Z"/>
  <path class="cls-1" d="M16.01,16.52s-.03,0-.04,0c-2.07-.25-3.68-1.87-3.92-3.94-.02-.2.12-.38.32-.4.21-.04.38.12.4.32.2,1.74,1.55,3.1,3.29,3.3.2.02.34.2.32.4-.02.18-.18.32-.36.32Z"/>
  <path class="cls-1" d="M17.67,16.39c-.16,0-.3-.1-.35-.26-.05-.19.06-.39.25-.45,1.61-.46,2.73-1.96,2.73-3.63,0-2.09-1.7-3.79-3.78-3.79-1.07,0-2.09.46-2.81,1.25-.13.15-.36.16-.51.03-.15-.13-.16-.36-.03-.51.85-.95,2.07-1.49,3.35-1.49,2.48,0,4.5,2.02,4.5,4.51,0,2-1.34,3.78-3.25,4.33-.03,0-.07.01-.1.01Z"/>
  <path class="cls-1" d="M14.94,20.59c-.11,0-.21-.05-.28-.13-.13-.15-.1-.38.05-.51,2.29-1.86.02-6.99,0-7.05-.08-.18,0-.4.18-.48.18-.08.4,0,.48.18.1.23,2.53,5.69-.2,7.91-.07.05-.15.08-.23.08Z"/>
  <path class="cls-1" d="M18.72,20.59c-.09,0-.18-.03-.25-.1-2.57-2.36-.36-7.57-.27-7.79.08-.18.29-.27.48-.19.18.08.27.29.19.48-.02.05-2.1,4.96.09,6.97.15.14.16.36.02.51-.07.08-.17.12-.27.12Z"/>
  <path class="cls-1" d="M16.83,14.02c-.14,0-.27-.08-.33-.2l-.73-1.51c-.09-.18-.01-.4.17-.48.18-.09.4-.01.48.17l.35.73.25-.7c.07-.19.27-.29.46-.22.19.07.29.27.22.46l-.54,1.51c-.05.14-.18.23-.32.24h-.02Z"/>
  <path class="cls-1" d="M16.95,8.29s-.02,0-.03,0c-.2-.01-.35-.19-.33-.39,0-.07.1-1.77-1.61-2.58-1.54-.73-3.08.23-3.1.24-.17.11-.39.06-.5-.11-.11-.17-.06-.39.11-.5.08-.05,1.89-1.19,3.8-.29,2.17,1.03,2.03,3.2,2.02,3.29-.01.19-.17.33-.36.33Z"/>
  <path class="cls-1" d="M22.14,11.6c-.2,0-.36-.16-.36-.35-.03-1.46-.87-1.98-.9-2-.17-.1-.23-.32-.13-.49.1-.17.32-.23.49-.13.05.03,1.22.72,1.26,2.61,0,.2-.15.37-.35.37h0Z"/>
  <path class="cls-1" d="M10.39,20.1c-.06,0-.13-.02-.19-.05-.17-.1-.23-.33-.12-.5,1.58-2.6,1.24-6.11,1.23-6.15-.02-.2.12-.38.32-.4.2-.03.38.12.4.32.02.15.37,3.78-1.33,6.6-.07.11-.19.17-.31.17Z"/>
  <path class="cls-1" d="M13.7,20.59c-.1,0-.2-.04-.27-.13-1.39-1.62-.74-5.98-.71-6.17.03-.2.22-.33.41-.3.2.03.33.22.3.41-.18,1.17-.43,4.45.54,5.58.13.15.11.38-.04.51-.07.06-.15.09-.24.09Z"/>
  <path class="cls-1" d="M3.63,14.95c-.05,0-.11-.01-.15-.03-1.37-.65-1.93-2.19-1.96-2.26-.07-.19.03-.4.22-.46.19-.07.39.03.46.22,0,.01.49,1.33,1.58,1.85.18.09.26.3.17.48-.06.13-.19.21-.33.21Z"/>
</svg>