<?xml version="1.0" encoding="UTF-8"?>
<svg id="Layer_1" data-name="Layer 1" xmlns="http://www.w3.org/2000/svg" viewBox="0 0 24 24">
  <path d="M19.53,5.34v-1.85c0-1.02-.83-1.85-1.85-1.85s-1.85.83-1.85,1.85v1.85h-2.47v-1.85c0-1.02-.83-1.85-1.85-1.85s-1.85.83-1.85,1.85v1.85H1.64v9.04h.62c.83,0,1.24.15,1.76.33.64.23,1.36.49,2.87.49,1.4,0,2.12-.22,2.81-.44.63-.2,1.22-.38,2.44-.38s1.81.19,2.44.38c.69.22,1.4.44,2.81.44,1.51,0,2.23-.26,2.87-.49.52-.19.93-.33,1.76-.33h.62V5.34h-3.08ZM17.06,3.49c0-.34.28-.62.62-.62s.62.28.62.62v1.85h-1.23v-1.85ZM15.83,6.58v1.23h-4.93v-1.23h4.93ZM10.89,9.04h4.93v1.23h-4.93v-1.23ZM10.89,3.49c0-.34.28-.62.62-.62s.62.28.62.62v1.85h-1.23v-1.85ZM6.89,13.98c-1.29,0-1.85-.2-2.45-.42-.44-.16-.88-.32-1.56-.38v-6.6h6.78v6.91c-.79.23-1.35.49-2.77.49ZM12.13,13.15c-.48,0-.89.03-1.23.07v-1.71h4.93v2.33c-1.1-.23-1.69-.68-3.7-.68ZM21.38,13.18c-.67.06-1.12.22-1.56.38-.6.21-1.16.42-2.45.42-.11,0-.21,0-.31,0v-7.39h4.32v6.6Z"/>
  <path d="M17.37,16.44c-1.22,0-1.81-.19-2.44-.38-.69-.22-1.4-.44-2.81-.44s-2.12.22-2.81.44c-.63.2-1.22.38-2.44.38s-1.81-.19-2.44-.38c-.69-.22-1.4-.44-2.81-.44v1.23c1.22,0,1.81.19,2.44.38.69.22,1.4.44,2.81.44s2.12-.22,2.81-.44c.63-.2,1.22-.38,2.44-.38s1.81.19,2.44.38c.69.22,1.4.44,2.81.44s2.12-.22,2.81-.44c.63-.2,1.22-.38,2.44-.38v-1.23c-1.4,0-2.12.22-2.81.44-.63.2-1.22.38-2.44.38h0Z"/>
  <path d="M17.37,18.91c-1.22,0-1.81-.19-2.44-.38-.69-.22-1.4-.44-2.81-.44s-2.12.22-2.81.44c-.63.2-1.22.38-2.44.38s-1.81-.19-2.44-.38c-.69-.22-1.4-.44-2.81-.44v1.23c1.22,0,1.81.19,2.44.38.69.22,1.4.44,2.81.44s2.12-.22,2.81-.44c.63-.2,1.22-.38,2.44-.38s1.81.19,2.44.38c.69.22,1.4.44,2.81.44s2.12-.22,2.81-.44c.63-.2,1.22-.38,2.44-.38v-1.23c-1.4,0-2.12.22-2.81.44-.63.2-1.22.38-2.44.38h0Z"/>
  <path d="M17.37,21.38c-1.22,0-1.81-.19-2.44-.38-.69-.22-1.4-.44-2.81-.44s-2.12.22-2.81.44c-.63.2-1.22.38-2.44.38s-1.81-.19-2.44-.38c-.69-.22-1.4-.44-2.81-.44v1.23c1.22,0,1.81.19,2.44.38.69.22,1.4.44,2.81.44s2.12-.22,2.81-.44c.63-.2,1.22-.38,2.44-.38s1.81.19,2.44.38c.69.22,1.4.44,2.81.44s2.12-.22,2.81-.44c.63-.2,1.22-.38,2.44-.38v-1.23c-1.4,0-2.12.22-2.81.44-.63.2-1.22.38-2.44.38h0Z"/>
</svg>