<?xml version="1.0" encoding="UTF-8"?>
<svg id="Layer_1" data-name="Layer 1" xmlns="http://www.w3.org/2000/svg" viewBox="0 0 24 24">
  <path d="M19.46,5.65c.93,0,1.69-.76,1.69-1.69s-.76-1.69-1.69-1.69-1.69.76-1.69,1.69.76,1.69,1.69,1.69ZM19.46,3.11c.47,0,.85.38.85.85s-.38.85-.85.85-.85-.38-.85-.85.38-.85.85-.85Z"/>
  <path d="M22,20.04h-5.99c-.32,0-.61-.18-.76-.47l-.14-.29c-.29-.58-.87-.94-1.51-.94h-.49c0-.49-.16-.95-.47-1.32.24-1.05-.57-2.07-1.65-2.07s-1.89,1.01-1.65,2.07c-.3.37-.47.83-.47,1.32h-.85c0-.49-.16-.95-.47-1.32.24-1.05-.57-2.07-1.65-2.07s-1.89,1.01-1.65,2.07c-.3.37-.47.83-.47,1.32h-1.27c-.56,0-.56.85,0,.85h1.45c.27.62.83,1.09,1.51,1.23v1.74c0,.56.85.56.85,0v-1.74c.68-.14,1.24-.61,1.51-1.23h1.21c.27.62.83,1.09,1.51,1.23v1.74c0,.56.85.56.85,0v-1.74c.68-.14,1.24-.61,1.51-1.23,1.03,0,1.16-.06,1.57.76.29.58.87.94,1.51.94h5.99c.56,0,.56-.85,0-.85ZM5.91,19.62c-1.13,0-1.7-1.39-.88-2.18.28-.27.03-.47.03-.78,0-.47.38-.85.85-.85s.85.38.85.85c0,.32-.23.52.03.78.82.8.25,2.18-.88,2.18ZM10.99,19.62c-1.13,0-1.7-1.39-.88-2.18.28-.27.03-.47.03-.78,0-.47.38-.85.85-.85s.85.38.85.85c0,.32-.23.52.03.78.82.8.25,2.18-.88,2.18Z"/>
  <path d="M2.52,14.11h19.47c.56,0,.56-.85,0-.85h-2.32l-2.96-4.23h3.17c.84,0,.42-1.99-1.11-2.29-.78-1.44-2.87-1.47-3.68-.03-.5-.71-.76-1.19-1.51-1.59-1.29-.67-2.85-.27-3.67.9l-5.07,7.25h-2.32c-.56,0-.56.85,0,.85ZM15.74,7.29c.42-1.06,1.93-1.06,2.35,0,.06.15.21.26.37.27.41.02.75.28.91.63h-4.9c.16-.35.5-.61.91-.63.17,0,.31-.11.37-.27ZM10.61,6.51c.58-.83,1.68-1.1,2.58-.64.54.29.73.64,1.13,1.21-.47.35-.78.9-.78,1.53,0,.23.19.42.42.42h1.73l2.96,4.23H5.87l4.73-6.76Z"/>
  <path d="M17.76,19.2h1.69c.56,0,.56-.85,0-.85h-1.69c-.56,0-.56.85,0,.85Z"/>
  <path d="M14.8,16.65c-.56,0-.56.85,0,.85h1.69c.56,0,.56-.85,0-.85h-1.69Z"/>
  <path d="M18.61,15.81c.56,0,.56-.85,0-.85h-1.69c-.56,0-.56.85,0,.85h1.69Z"/>
  <path d="M21.57,17.5c.56,0,.56-.85,0-.85h-1.69c-.56,0-.56.85,0,.85h1.69Z"/>
  <path d="M2.52,6.49h5.93c.84,0,.42-1.99-1.11-2.29-.79-1.46-2.91-1.46-3.7,0-1.52.3-1.96,2.29-1.11,2.29ZM3.94,5.02c.17,0,.31-.11.37-.27.42-1.06,1.93-1.06,2.35,0,.06.15.21.26.37.27.41.02.75.28.91.63H3.03c.16-.35.5-.61.91-.63Z"/>
</svg>