<?xml version="1.0" encoding="UTF-8"?>
<svg id="Layer_1" data-name="Layer 1" xmlns="http://www.w3.org/2000/svg" viewBox="0 0 24 24">
  <path d="M23.15,17.58c-1.04,0-1.13-.46-2.37-.47,0-1.83-1.49-3.32-3.32-3.32-1.96,0-3.52,1.71-3.29,3.7-.47.14-1.1.14-1.75-.11-2.34-.92-2.89.76-4.83,0-.23-.14-.45-.26-.68-.38,2.24-2.78,3.19-6.3,2.94-9.86,4.13.97,4.1,1.06,4.36.79.12-.12.16-.29.12-.45-.02-.07-.4-1.54-1.8-2.71,2.44-1.05,2.51-.99,2.56-1.35.15-1.1-5.14-3.08-6.94.17C6.7.37,1.31,1.81,1.36,2.92c.02.36.11.32,2.29,1.49-1.25.9-1.75,2.03-1.77,2.09-.07.15-.05.33.05.46.22.31.21.21,4.53-.15-.24,1.51-1.18,5.95-4.16,8.54-.5-.1-.82-.14-.88-.15-.62-.07-.73.87-.1.94.08,0,8.25,1,10.5,7.73.2.59,1.1.29.9-.3-.75-2.24-2.06-3.88-3.54-5.1.95-.13,1.52-.78,2.91-.23,2.32.91,2.91-.76,4.84,0,2.39.94,2.85-.78,4.85,0,2.33.91,2.07-.68,1.38-.68ZM5.91,11.9h2.55c-.13.47-.28.94-.47,1.42h-2.82c.28-.47.52-.95.74-1.42ZM6.81,9.53h2.08c-.04.45-.1.93-.2,1.42h-2.37c.19-.49.35-.97.49-1.42ZM13.09,6.93l-3.59-.85,2.02-.87c.8.53,1.28,1.2,1.56,1.71ZM9.67,3.3c1.24-.79,2.65-.67,3.94,0l-5.07,2.17c.11-.7.39-1.7,1.14-2.17ZM6.75,3.27c.68.55.82,1.52.82,2.18L2.85,2.91c.91-.38,2.5-.76,3.9.36ZM4.61,4.93l1.76.95-3.15.26c.3-.38.76-.84,1.4-1.21ZM8.89,6.91c.04.44.07,1.01.05,1.67h-1.87c.2-.78.31-1.43.36-1.85.66-.05.33-.09,1.45.18ZM4.55,14.26h3.01c-.39.78-.89,1.55-1.51,2.3-.97-.44-1.88-.74-2.64-.95.42-.42.8-.88,1.14-1.36ZM17.26,17.38c-.77-.3-1.55-.33-2.17-.19-.04-1.37,1.06-2.45,2.37-2.45s2.42,1.1,2.37,2.47c-.82.21-1.36.64-2.57.17Z"/>
  <path d="M19.83,19.47h-4.74c-.63,0-.63.95,0,.95h4.74c.63,0,.63-.95,0-.95Z"/>
  <path d="M18.88,21.37h-2.84c-.63,0-.63.95,0,.95h2.84c.63,0,.63-.95,0-.95Z"/>
  <path d="M17.94,12.37v-.95c0-.63-.95-.63-.95,0v.95c0,.63.95.63.95,0Z"/>
  <path d="M13.82,12.72l.54.78c.36.51,1.14-.03.78-.54l-.54-.78c-.36-.51-1.14.03-.78.54Z"/>
  <path d="M12.28,14.72c-.59-.21-.91.68-.32.89.97.35.94.35,1.05.35.53,0,.66-.74.16-.92l-.89-.32Z"/>
  <path d="M20.18,13.7c.31,0,.35-.14.93-.98.36-.51-.42-1.06-.78-.54l-.54.78c-.22.32,0,.75.39.75Z"/>
  <path d="M21.91,15.96c.11,0,.07,0,1.05-.35.59-.21.27-1.1-.32-.89l-.89.32c-.5.18-.36.92.16.92Z"/>
</svg>