<?xml version="1.0" encoding="UTF-8"?>
<svg id="Layer_1" data-name="Layer 1" xmlns="http://www.w3.org/2000/svg" viewBox="0 0 24 24">
  <path d="M3.79,5.2h6.39c.9,0,.45-2.15-1.2-2.47-.85-1.57-3.13-1.57-3.99,0-1.64.32-2.12,2.47-1.2,2.47ZM5.32,3.61c.18,0,.33-.12.4-.29.45-1.14,2.08-1.14,2.53,0,.07.17.22.28.4.29.44.02.81.3.98.68h-5.28c.17-.38.54-.66.98-.68Z"/>
  <path d="M22.56,17.52c-6.17-.95-5.8-.87-5.99-.97-4.27-2.13-2.81-1.78-6.68-1.78l-.57-1.7c1.31-1.31,1.43-1.51,1.78-1.6,1.99-.5,1.37-.09,4.08-3.57,1.11-1.43,2.52-.59,3.61-1.01,2.39-.96,1.53-.78,3.69-.78.6,0,.6-.91,0-.91-2.31,0-1.55-.15-4.02.85-.76.3-2.6-.51-4,1.3-2.66,3.42-1.92,2.83-3.58,3.25-.65.16-.87.5-1.96,1.59-.38-.75-.61-1.43-1.57-1.64-4.18-.93-2.82-.41-5.61-2.08-.52-.31-.99.47-.47.78,2.96,1.77,1.62,1.25,5.89,2.19.55.12.62.48,1.22,1.7,1.09,3.26.67,2.67,2.25,3.72v1.67c-3.31.73-3.77.7-4.31,1.37-1.24,1.55-1.31,1.75-1.73,1.86l-3.2.8c-.59.15-.36,1.03.22.88,3.35-.84,3.68-.8,4.18-1.43,1.3-1.62,1.33-1.77,1.75-1.86l3.28-.73c.42-.09.71-.46.71-.89,0-2.31.18-2.04-1-2.83h2.05c.3,0,.18-.02,3.58,1.68.37.18.13.11,6.25,1.05.6.09.73-.81.14-.9Z"/>
  <path d="M13.83,21.62h-1.82c-.6,0-.6.91,0,.91h1.82c.6,0,.6-.91,0-.91Z"/>
  <path d="M16.56,18.88h-1.82c-.6,0-.6.91,0,.91h1.82c.6,0,.6-.91,0-.91Z"/>
  <path d="M19.76,20.71h-1.82c-.6,0-.6.91,0,.91h1.82c.6,0,.6-.91,0-.91Z"/>
</svg>