<?xml version="1.0" encoding="UTF-8"?>
<svg id="Layer_1" data-name="Layer 1" xmlns="http://www.w3.org/2000/svg" viewBox="0 0 24 24">
  <path d="M22.41,21.76h-3.25v-12.36c0-.36-.29-.65-.65-.65h-1.95v-4.56c0-.36-.29-.65-.65-.65h-1.63v-1.95c0-.36-.29-.65-.65-.65h-3.25c-.36,0-.65.29-.65.65v1.95h-1.63c-.36,0-.65.29-.65.65v4.56h-1.95c-.36,0-.65.29-.65.65v12.36H1.59c-.36,0-.65.29-.65.65s.29.65.65.65h20.81c.36,0,.65-.29.65-.65s-.29-.65-.65-.65ZM7.45,21.76h-1.31v-3.91h1.31v3.91ZM7.45,16.56h-1.31v-3.91h1.31v3.91ZM7.45,11.35h-1.31v-1.31h1.31v1.31ZM11.02,2.24h1.96v1.31h-1.96v-1.31ZM12.65,21.76h-1.31v-2.93h1.31v2.93ZM15.25,21.76h-1.31v-3.58c0-.36-.29-.65-.65-.65h-2.6c-.36,0-.65.29-.65.65v3.58h-1.31V4.84h6.51v16.92ZM17.86,21.76h-1.31v-3.91h1.31v3.91ZM17.86,16.56h-1.31v-3.91h1.31v3.91ZM17.86,11.35h-1.31v-1.31h1.31v1.31Z"/>
  <path d="M13.3,16.22c.36,0,.65-.29.65-.65V6.8c0-.36-.29-.65-.65-.65s-.65.29-.65.65v8.78c0,.36.29.65.65.65Z"/>
  <path d="M10.7,16.22c.36,0,.65-.29.65-.65V6.8c0-.36-.29-.65-.65-.65s-.65.29-.65.65v8.78c0,.36.29.65.65.65Z"/>
</svg>